<svg width="180" height="200" viewBox="0 0 180 200" fill="none" xmlns="http://www.w3.org/2000/svg">
<path fill-rule="evenodd" clip-rule="evenodd" d="M14.5299 196.394C22.6103 193.982 42.2243 185.769 71.353 182.64C75.7842 182.183 77.4139 181.075 76.1106 179.445C73.7647 176.642 68.0302 176.577 51.6738 179.445C36.0995 182.118 43.2024 180.879 57.5387 171.231C130.719 122.078 120.813 103.694 125.831 94.3721L130.979 90.7867C157.306 72.3379 186.434 15.0358 175.226 3.75797C171.446 -0.0230577 170.143 1.60671 166.233 15.4922C158.674 41.8942 145.25 65.6233 129.611 80.2911C125.766 83.8765 126.026 83.9417 124.462 78.2702C118.076 54.4106 67.7689 53.6936 56.1696 77.3575C46.0039 98.088 75.85 114.385 105.435 104.281C112.798 101.739 112.407 101.478 109.8 107.801C95.7898 141.896 49.2627 165.364 33.167 176.316C27.628 180.097 27.6274 180.032 33.9484 170.318C45.4174 152.782 46.3304 150.501 42.8766 148.741C37.8589 146.068 34.7304 148.48 26.8454 161.127C17.3314 176.316 12.5743 182.835 6.18817 189.159C-3.65171 198.872 5.79783 199.002 14.5299 196.394ZM72.7214 99.2614C61.3828 91.3734 64.7713 75.5322 79.1727 68.7525C98.1357 59.8866 113.384 67.579 113.515 86.2234C113.58 93.4595 106.672 95.35 105.955 95.8715C93.3787 102.13 78.9121 103.629 72.7214 99.2614Z" fill="#FF9702"/>
<path fill-rule="evenodd" clip-rule="evenodd" d="M76.1107 179.445C77.414 181.075 75.7842 182.183 71.353 182.639C42.2243 185.769 22.6103 193.982 14.5299 196.394C5.79787 199.002 -3.65169 198.872 6.1882 189.158C12.5743 182.835 17.3314 176.316 26.8455 161.127C34.7304 148.48 37.859 146.068 42.8766 148.741C46.3304 150.501 45.4174 152.782 33.9484 170.318C31.9894 173.329 30.6376 175.412 29.8697 176.742C28.5483 179.03 28.9557 179.085 30.9733 177.788C35.1761 175.086 39.3402 172.341 43.5982 169.72C64.0235 157.151 98.1513 136.149 109.8 107.801C111.068 104.726 111.812 103.208 111.394 102.752C110.954 102.271 109.218 102.975 105.435 104.281C75.85 114.385 46.0039 98.0879 56.1696 77.3575C67.7689 53.6935 118.076 54.4106 124.462 78.2702C125.27 81.1979 125.591 82.5969 126.242 82.7721C126.852 82.9363 127.751 82.0257 129.611 80.2911C145.25 65.6233 158.674 41.8941 166.233 15.4921C170.143 1.60666 171.446 -0.0231018 175.226 3.75792C186.434 15.0358 157.306 72.3379 130.979 90.7866L125.831 94.3721C124.926 96.0536 124.506 98.0299 123.997 100.428C121.683 111.327 117.519 130.944 57.5387 171.231C51.508 175.29 46.7572 177.86 44.4361 179.277C42.3553 180.548 42.2271 180.891 44.8796 180.549C46.3021 180.366 48.5243 179.985 51.6739 179.445C68.0302 176.577 73.7647 176.642 76.1107 179.445ZM51.481 177.448C59.5761 176.032 65.2089 175.31 69.1505 175.318C73.0722 175.327 75.8799 176.053 77.6444 178.161L77.6587 178.178L77.6727 178.196C78.1634 178.81 78.6511 179.708 78.5274 180.794C78.3987 181.924 77.6788 182.683 76.9997 183.141C75.7518 183.982 73.7868 184.399 71.5622 184.629C42.6781 187.732 23.3661 195.844 15.1022 198.311C12.831 198.989 10.4778 199.501 8.36472 199.719C6.33322 199.929 4.22202 199.904 2.62952 199.245C1.79018 198.897 0.935577 198.306 0.426498 197.327C-0.0910797 196.331 -0.0916443 195.243 0.181702 194.232C0.691513 192.345 2.28893 190.198 4.78098 187.737C10.9934 181.586 15.6495 175.233 25.1494 160.067C29.0579 153.798 31.9874 149.712 34.7137 147.606C36.1442 146.501 37.6387 145.842 39.2785 145.772C40.8854 145.703 42.3817 146.213 43.8041 146.969C44.7887 147.473 46.0046 148.274 46.4669 149.813C46.8971 151.245 46.5073 152.801 45.8575 154.376C43.1194 161.014 38.5018 166.974 34.6118 172.967C36.9193 171.482 39.6282 169.815 42.6051 167.983C44.5973 166.757 46.7096 165.457 48.902 164.088C55.7277 159.827 63.4365 154.835 71.0688 149.135C86.3867 137.694 101.157 123.572 107.95 107.041L107.951 107.039C108.234 106.353 108.48 105.769 108.69 105.267C107.983 105.51 107.13 105.811 106.088 106.171L106.081 106.174C90.8208 111.386 75.3732 109.839 64.9369 104.137C59.7125 101.283 55.6313 97.32 53.5791 92.5166C51.5026 87.6564 51.5958 82.1421 54.3739 76.4769C60.675 63.6223 77.1499 57.7845 92.2984 57.9927C99.9551 58.0979 107.529 59.7348 113.661 62.9645C119.8 66.1985 124.612 71.104 126.392 77.7452C126.65 78.6813 126.845 79.4077 127.011 79.9805C127.343 79.6756 127.743 79.2981 128.244 78.8315C143.555 64.4713 156.822 41.0929 164.309 14.9454C165.288 11.4697 166.118 8.71019 166.873 6.59616C167.651 4.41933 168.611 1.41395 170.9 0.337906C173.076 -0.684872 175.146 0.848929 176.641 2.34398L176.645 2.34808C178.505 4.2195 179.37 6.87868 179.616 9.81172C179.863 12.7618 179.505 16.2096 178.698 19.9421C177.083 27.4146 173.592 36.3797 168.961 45.4896C159.724 63.6595 145.677 82.9292 132.127 92.4245L132.122 92.4278L127.389 95.7242C126.993 96.5696 126.696 97.5585 126.404 98.795C126.005 100.482 125.686 102.187 125.278 103.872C124.319 107.834 122.73 112.745 118.951 118.91C111.432 131.176 95.3367 148.252 58.6539 172.891C55.9793 174.691 53.5546 176.201 51.481 177.448ZM73.8636 97.6196L73.8745 97.6271C76.3701 99.388 80.9288 100.157 86.7397 99.5616C92.4218 98.9792 98.9164 97.1272 104.979 94.1235C106.242 93.3701 107.609 92.9367 108.781 92.0018C110.233 90.8439 111.54 89.1015 111.515 86.2414L111.515 86.2373C111.453 77.4817 107.885 71.6869 102.501 68.9551C97.0298 66.1789 89.1556 66.293 80.0202 70.564C73.2997 73.7293 69.3318 78.9155 68.251 84.0066C67.1844 89.0305 68.8691 94.145 73.8636 97.6196ZM79.1728 68.7524C98.1357 59.8866 113.384 67.579 113.515 86.2234C113.58 93.4594 106.672 95.35 105.955 95.8715C93.3787 102.13 78.9121 103.629 72.7215 99.2614C61.3828 91.3734 64.7714 75.5322 79.1728 68.7524Z" fill="#1C1C1C"/>
</svg>
