<svg width="173" height="198" viewBox="0 0 173 198" fill="none" xmlns="http://www.w3.org/2000/svg">
<path d="M29.2712 121.072C20.5419 136.826 8.34978 157.14 1 173.5C10.1202 170.242 21.4197 166.052 29.2712 160.618C31.0909 170.559 34.9342 179.915 37.3432 189.663C42.5956 175.423 53.3182 157.474 60.177 143.884" fill="#FF9702" stroke="black" stroke-width="2" stroke-miterlimit="1.5" stroke-linecap="round" stroke-linejoin="round"/>
<path d="M111.306 148.038C118.101 163.88 130.251 191.354 133.418 196.821C135.451 185.957 137.453 174.919 139.805 164.114C150.546 169.564 160.059 173.599 171.634 180.855C170.13 177.763 153.553 146.171 142.517 127.651" fill="#FF9702" stroke="black" stroke-width="2" stroke-miterlimit="1.5" stroke-linecap="round" stroke-linejoin="round"/>
<path d="M110.956 21.4749C113.726 14.9094 107.993 5.89336 102.397 2.82573C92.6629 -2.51198 76.5888 4.46641 75.4614 15.8118C66.4893 -1.15252 41.7012 7.04186 42.7214 25.8707C41.1995 24.9214 39.7239 24.3276 38.0016 23.7464C22.1442 18.3919 12.5546 41.7668 22.968 52.3627C9.24705 56.2407 3.97874 79.9722 19.2849 85.4577C3.03209 94.2365 13.6581 125.172 32.7369 118.987C31.4723 124.35 31.2071 130.959 34.2253 135.827C39.122 143.725 51.744 147.343 59.3764 140.91C59.2495 157.283 83.776 159.68 90.5024 146.661C101.891 161.165 123.757 155.572 125.361 136.583C129.157 137.933 133.47 139.1 137.484 138.077C149.955 134.897 155.502 119.897 149.173 109.323C163.804 107.183 172.677 81.6676 151.655 72.3633C159.378 66.0028 160.476 55.1463 153.52 45.3387C149.848 40.1614 141.34 39.11 136.251 39.9564C142.24 24.8117 127.974 8.98043 110.956 21.4749Z" fill="#F4A0C4" stroke="black" stroke-width="2" stroke-miterlimit="1.5" stroke-linecap="round" stroke-linejoin="round"/>
<path d="M37.815 58.2148C45.9304 34.7563 77.0905 20.2937 99.6684 30.8148C133.862 45.9031 159.977 84.1242 127.286 117.415C110.944 134.057 84.1834 137.311 63.3583 127.521C35.1862 114.278 28.3181 85.6684 37.815 58.2148Z" fill="#F4A0C4" stroke="black" stroke-width="2" stroke-miterlimit="1.5" stroke-linecap="round" stroke-linejoin="round"/>
<path d="M92.1165 105.653H82.0037V72.3915H70.1938V65.9387C73.3108 65.8056 75.4927 65.606 76.7395 65.3399C78.7251 64.9186 80.3413 64.076 81.5881 62.812C82.4424 61.9472 83.0889 60.7941 83.5275 59.3528C83.7815 58.488 83.9085 57.8449 83.9085 57.4236H92.1165V105.653Z" fill="black"/>
</svg>
