<svg width="138" height="242" viewBox="0 0 138 242" fill="none" xmlns="http://www.w3.org/2000/svg">
<path d="M111.703 64.8657L92.8001 90.7886C92.8001 90.7886 106.456 97.8144 114.209 86.9123C122.043 75.8949 111.703 64.8657 111.703 64.8657Z" fill="#FFCB80"/>
<path d="M13.107 183.909L27.4561 49.4711C19.6868 39.8292 17.1246 32.8912 19.3084 20.7531C19.3084 20.7531 12.2994 15.4951 12.4793 10.7774C12.7052 4.8497 18.3914 0.0870855 24.2275 1.14892C27.769 1.79325 31.505 6.80535 31.505 6.80535C41.6391 3.3859 53.9271 5.30561 65.1223 18.1562C82.8791 15.0874 92.8344 13.5519 110.591 18.1562C125.46 22.0116 135.702 32.8237 135.702 32.8237C130.04 40.1293 122.437 50.3038 114.379 61.2317C105.678 73.0316 96.4459 85.7099 88.5518 96.603C77.0247 112.509 68.3509 124.609 68.3509 124.609C68.3509 124.609 46.2373 113.806 38.8456 89.5146L27.4561 178.69C44.6343 175.156 126.285 172.675 126.285 198.577V215.584C113.683 247.494 15.7348 248.165 1.00002 217.564L1 198.577C2.62758 190.376 7.20134 186.956 13.107 183.909Z" fill="#A466FB"/>
<path d="M92.8001 90.7886L91.9921 90.1994L91.3037 91.1433L92.3426 91.6778L92.8001 90.7886ZM111.703 64.8657L112.433 64.1818L111.607 63.3008L110.895 64.2766L111.703 64.8657ZM114.209 86.9123L115.024 87.4918L114.209 86.9123ZM35.3481 56.0401L36.345 56.1183L36.3855 55.6025L35.9878 55.2715L35.3481 56.0401ZM68.3509 124.609L67.9119 125.507L68.6712 125.878L69.1636 125.192L68.3509 124.609ZM24.2275 1.14892L24.4065 0.165074L24.2275 1.14892ZM12.4793 10.7774L11.48 10.7393L12.4793 10.7774ZM65.1223 18.1562L64.3683 18.813L64.738 19.2374L65.2926 19.1416L65.1223 18.1562ZM110.591 18.1562L110.34 19.1242L110.34 19.1242L110.591 18.1562ZM135.702 32.8237L136.492 33.4363L137.017 32.7586L136.428 32.136L135.702 32.8237ZM1 198.577L0.0191287 198.382L-1.11769e-07 198.479L0 198.577L1 198.577ZM1.00002 217.564L2.15956e-05 217.564L2.18551e-05 217.792L0.0990289 217.998L1.00002 217.564ZM126.285 215.584L127.215 215.952L127.285 215.775V215.584H126.285ZM88.5518 96.603L87.7421 96.0162L87.7421 96.0162L88.5518 96.603ZM114.379 61.2317L113.574 60.6382L113.574 60.6382L114.379 61.2317ZM93.6081 91.3778L112.511 65.4549L110.895 64.2766L91.9921 90.1994L93.6081 91.3778ZM111.703 64.8657C110.974 65.5497 110.973 65.5494 110.973 65.5492C110.973 65.5492 110.973 65.549 110.973 65.549C110.973 65.5489 110.973 65.549 110.973 65.5492C110.974 65.5497 110.975 65.5508 110.976 65.5527C110.98 65.5563 110.985 65.5625 110.993 65.5713C111.01 65.589 111.035 65.6169 111.068 65.6548C111.135 65.7306 111.235 65.8462 111.362 65.9988C111.615 66.3043 111.972 66.7571 112.378 67.3359C113.193 68.4962 114.196 70.1475 114.962 72.1195C116.488 76.0498 117.057 81.1818 113.394 86.3327L115.024 87.4918C119.196 81.6254 118.511 75.7341 116.826 71.3955C115.986 69.233 114.894 67.4385 114.015 66.1865C113.574 65.5591 113.185 65.0643 112.903 64.7235C112.761 64.5531 112.647 64.4209 112.566 64.3298C112.526 64.2842 112.494 64.2489 112.472 64.2241C112.46 64.2117 112.451 64.202 112.445 64.1949C112.442 64.1914 112.439 64.1885 112.437 64.1863C112.436 64.1852 112.435 64.1843 112.434 64.1835C112.434 64.1832 112.434 64.1827 112.433 64.1825C112.433 64.1821 112.433 64.1818 111.703 64.8657ZM113.394 86.3327C109.788 91.4029 104.843 92.3161 100.687 91.9427C98.5995 91.7552 96.733 91.2417 95.384 90.7717C94.7114 90.5373 94.1723 90.3154 93.8045 90.1537C93.6207 90.0729 93.48 90.0073 93.3872 89.9629C93.3408 89.9406 93.3064 89.9237 93.2846 89.9129C93.2737 89.9075 93.2659 89.9036 93.2614 89.9013C93.2591 89.9001 93.2577 89.8994 93.257 89.8991C93.2567 89.8989 93.2566 89.8988 93.2567 89.8989C93.2567 89.8989 93.2569 89.899 93.257 89.899C93.2572 89.8992 93.2576 89.8993 92.8001 90.7886C92.3426 91.6778 92.343 91.678 92.3435 91.6782C92.3437 91.6784 92.3443 91.6786 92.3447 91.6789C92.3456 91.6793 92.3468 91.6799 92.3481 91.6806C92.3508 91.682 92.3543 91.6837 92.3586 91.6859C92.3673 91.6903 92.3792 91.6963 92.3944 91.7039C92.4247 91.7189 92.468 91.7402 92.5235 91.7667C92.6345 91.8199 92.7948 91.8946 92.9996 91.9846C93.4088 92.1645 93.9972 92.4064 94.7259 92.6603C96.1798 93.1669 98.2118 93.7285 100.508 93.9347C105.117 94.3487 110.877 93.3237 115.024 87.4918L113.394 86.3327ZM26.4617 49.365L12.1127 183.803L14.1014 184.016L28.4504 49.5772L26.4617 49.365ZM13.4489 184.849L27.7979 179.63L27.1143 177.75L12.7652 182.97L13.4489 184.849ZM28.448 178.817L39.8376 89.6413L37.8537 89.3879L26.4641 178.564L28.448 178.817ZM39.8108 89.253C36.2913 76.2713 35.3295 69.0584 36.345 56.1183L34.3511 55.9618C33.3145 69.1719 34.313 76.6174 37.8805 89.7763L39.8108 89.253ZM35.9878 55.2715L28.0958 48.7025L26.8163 50.2397L34.7083 56.8086L35.9878 55.2715ZM18.3242 20.576C17.2136 26.749 17.2952 31.6854 18.6921 36.3359C20.0847 40.9724 22.7587 45.2353 26.6774 50.0986L28.2347 48.8437C24.3842 44.065 21.8923 40.038 20.6075 35.7605C19.3269 31.497 19.2194 26.8953 20.2925 20.9302L18.3242 20.576ZM37.889 89.8058C41.6543 102.18 49.1636 111.101 55.7056 116.918C58.9788 119.829 62.0183 121.97 64.2434 123.385C65.3563 124.093 66.2665 124.62 66.9018 124.972C67.2195 125.148 67.4685 125.28 67.6398 125.369C67.7255 125.414 67.7918 125.447 67.8375 125.47C67.8603 125.482 67.8781 125.491 67.8905 125.497C67.8968 125.5 67.9017 125.502 67.9052 125.504C67.907 125.505 67.9085 125.506 67.9096 125.506C67.9101 125.507 67.9107 125.507 67.911 125.507C67.9115 125.507 67.9119 125.507 68.3509 124.609C68.7898 123.71 68.7901 123.711 68.7902 123.711C68.7902 123.711 68.7903 123.711 68.7901 123.711C68.7899 123.71 68.7893 123.71 68.7885 123.71C68.7867 123.709 68.7835 123.707 68.7791 123.705C68.7703 123.701 68.7562 123.694 68.7369 123.684C68.6985 123.665 68.6397 123.635 68.5616 123.594C68.4054 123.513 68.1721 123.389 67.8707 123.223C67.2677 122.889 66.3926 122.382 65.3169 121.698C63.1646 120.329 60.2138 118.251 57.0346 115.424C50.672 109.766 43.4286 101.141 39.8023 89.2235L37.889 89.8058ZM20.2288 21.1439C21.6121 17.886 22.6407 15.736 24.2545 13.7952C25.8679 11.855 28.1165 10.0661 32.0293 7.65688L30.9807 5.95382C27.0016 8.40386 24.5364 10.328 22.7167 12.5165C20.8975 14.7043 19.7737 17.0985 18.3879 20.3623L20.2288 21.1439ZM31.505 6.80535C32.3068 6.20771 32.3067 6.20754 32.3065 6.20734C32.3065 6.20725 32.3063 6.20704 32.3062 6.20686C32.3059 6.2065 32.3056 6.20607 32.3052 6.20556C32.3044 6.20454 32.3034 6.20321 32.3022 6.20159C32.2998 6.19834 32.2964 6.19389 32.2922 6.18828C32.2837 6.17706 32.2717 6.16119 32.2562 6.14097C32.2252 6.10051 32.1804 6.04258 32.1228 5.96949C32.0076 5.82336 31.8406 5.61624 31.6297 5.36668C31.2089 4.86866 30.6083 4.19622 29.8901 3.50049C28.4999 2.15384 26.4945 0.544954 24.4065 0.165074L24.0485 2.13277C25.502 2.39722 27.1354 3.61655 28.4986 4.93703C29.157 5.57487 29.7118 6.19572 30.1022 6.6576C30.2969 6.888 30.4495 7.07748 30.5524 7.20797C30.6038 7.27318 30.6428 7.32356 30.6682 7.35685C30.681 7.37348 30.6903 7.38584 30.6962 7.39363C30.6992 7.39752 30.7012 7.40027 30.7024 7.40185C30.703 7.40263 30.7034 7.40313 30.7035 7.40332C30.7036 7.40342 30.7036 7.40344 30.7036 7.40338C30.7036 7.40336 30.7035 7.40326 30.7035 7.40325C30.7034 7.40313 30.7033 7.403 31.505 6.80535ZM24.4065 0.165074C17.9444 -1.01065 11.728 4.23152 11.48 10.7393L13.4785 10.8155C13.6824 5.46787 18.8383 1.18482 24.0485 2.13277L24.4065 0.165074ZM11.48 10.7393C11.4256 12.1664 11.9139 13.5631 12.5929 14.8058C13.2758 16.0557 14.1902 17.2205 15.0862 18.2068C15.9852 19.1965 16.8865 20.0293 17.5613 20.6137C17.8995 20.9066 18.1828 21.1388 18.383 21.2989C18.4831 21.379 18.5626 21.4412 18.618 21.484C18.6456 21.5054 18.6673 21.5219 18.6825 21.5335C18.6901 21.5393 18.6961 21.5438 18.7004 21.5471C18.7025 21.5487 18.7043 21.55 18.7056 21.551C18.7062 21.5515 18.7068 21.5519 18.7072 21.5523C18.7075 21.5524 18.7077 21.5526 18.7078 21.5527C18.7081 21.5529 18.7083 21.553 19.3084 20.7531C19.9084 19.9532 19.9086 19.9533 19.9087 19.9534C19.9087 19.9534 19.9088 19.9534 19.9088 19.9535C19.9088 19.9535 19.9088 19.9534 19.9086 19.9533C19.9082 19.953 19.9074 19.9524 19.9062 19.9515C19.9037 19.9496 19.8997 19.9465 19.894 19.9422C19.8827 19.9336 19.865 19.9201 19.8414 19.9018C19.7942 19.8653 19.7233 19.8099 19.6321 19.737C19.4497 19.5911 19.1868 19.3757 18.8707 19.1019C18.237 18.5531 17.3973 17.7765 16.5666 16.862C15.7328 15.9441 14.9287 14.9098 14.348 13.8469C13.7634 12.7769 13.443 11.7472 13.4785 10.8155L11.48 10.7393ZM31.8248 7.75287C41.5494 4.47154 53.4209 6.24694 64.3683 18.813L65.8763 17.4993C54.4333 4.36427 41.7287 2.30027 31.1853 5.85784L31.8248 7.75287ZM65.2926 19.1416C83.0168 16.0784 92.7974 14.5754 110.34 19.1242L110.842 17.1882C92.8713 12.5284 82.7414 14.0964 64.952 17.1708L65.2926 19.1416ZM110.34 19.1242C117.616 21.0107 123.78 24.6066 128.138 27.747C130.313 29.315 132.03 30.7634 133.2 31.8172C133.785 32.3439 134.233 32.7715 134.532 33.0655C134.682 33.2125 134.795 33.326 134.869 33.4018C134.907 33.4397 134.934 33.4681 134.952 33.4865C134.961 33.4958 134.967 33.5025 134.971 33.5067C134.973 33.5087 134.975 33.5102 134.975 33.511C134.976 33.5114 134.976 33.5116 134.976 33.5117C134.976 33.5117 134.976 33.5116 134.976 33.5117C134.976 33.5115 134.976 33.5114 135.702 32.8237C136.428 32.136 136.428 32.1358 136.427 32.1355C136.427 32.1354 136.427 32.1351 136.427 32.1348C136.426 32.1342 136.425 32.1334 136.424 32.1325C136.423 32.1307 136.42 32.1282 136.417 32.1251C136.411 32.1188 136.403 32.11 136.392 32.0986C136.37 32.0759 136.338 32.0432 136.297 32.0009C136.214 31.9164 136.092 31.7939 135.933 31.6377C135.614 31.3254 135.146 30.8782 134.538 30.331C133.324 29.237 131.551 27.7415 129.307 26.1245C124.826 22.895 118.436 19.1571 110.842 17.1882L110.34 19.1242ZM12.6485 183.021C9.66362 184.561 6.91908 186.241 4.71412 188.632C2.49269 191.041 0.865329 194.118 0.0191287 198.382L1.98087 198.772C2.76225 194.834 4.23556 192.101 6.18433 189.988C8.14957 187.857 10.6448 186.305 13.5655 184.798L12.6485 183.021ZM0 198.577L2.15956e-05 217.564L2.00002 217.564L2 198.577L0 198.577ZM127.285 215.584V198.577H125.285V215.584H127.285ZM0.182119 199.152C5.69518 206.989 15.1866 212.354 26.479 215.663C37.7882 218.976 51.0191 220.262 64.1756 219.85C77.3343 219.439 90.464 217.328 101.579 213.815C112.663 210.313 121.874 205.376 127.05 199.221L125.52 197.933C120.705 203.658 111.925 208.448 100.976 211.908C90.0583 215.359 77.113 217.445 64.1131 217.851C51.111 218.258 38.0996 216.983 27.0413 213.743C15.9661 210.498 6.96467 205.317 1.81788 198.002L0.182119 199.152ZM0.0990289 217.998C3.96256 226.022 13.1752 231.834 24.7093 235.602C36.2879 239.386 50.4196 241.182 64.4541 241.016C78.4877 240.849 92.4902 238.719 103.807 234.599C115.082 230.494 123.905 224.332 127.215 215.952L125.355 215.217C122.364 222.791 114.218 228.68 103.123 232.719C92.0693 236.743 78.3009 238.851 64.4304 239.016C50.5607 239.181 36.6551 237.402 25.3304 233.701C13.9613 229.987 5.40486 224.407 1.90101 217.13L0.0990289 217.998ZM87.7421 96.0162C81.9778 103.97 76.9269 110.973 73.3171 115.987C71.5122 118.493 70.0675 120.503 69.0741 121.886C68.5773 122.578 68.1934 123.113 67.9336 123.475C67.8037 123.656 67.7049 123.794 67.6385 123.886C67.6053 123.933 67.5802 123.968 67.5634 123.991C67.555 124.003 67.5487 124.012 67.5445 124.017C67.5424 124.02 67.5408 124.023 67.5397 124.024C67.5392 124.025 67.5388 124.025 67.5385 124.026C67.5384 124.026 67.5383 124.026 67.5382 124.026C67.5382 124.026 67.5381 124.026 68.3509 124.609C69.1636 125.192 69.1636 125.192 69.1637 125.191C69.1638 125.191 69.1639 125.191 69.164 125.191C69.1643 125.191 69.1647 125.19 69.1652 125.189C69.1662 125.188 69.1678 125.186 69.1699 125.183C69.1741 125.177 69.1804 125.168 69.1888 125.156C69.2055 125.133 69.2306 125.098 69.2637 125.052C69.33 124.96 69.4288 124.822 69.5586 124.641C69.8182 124.279 70.2019 123.745 70.6985 123.053C71.6916 121.671 73.1358 119.661 74.9402 117.155C78.5491 112.143 83.5987 105.142 89.3615 97.1898L87.7421 96.0162ZM134.911 32.2111C129.242 39.5265 121.634 49.709 113.574 60.6382L115.184 61.8252C123.241 50.8986 130.838 40.732 136.492 33.4363L134.911 32.2111ZM113.574 60.6382C104.871 72.4412 95.6371 85.122 87.7421 96.0162L89.3615 97.1898C97.2548 86.2979 106.485 73.6221 115.184 61.8252L113.574 60.6382ZM127.285 198.577C127.285 191.463 121.659 186.516 113.649 183.124C105.586 179.711 94.7231 177.691 83.4084 176.6C60.7794 174.417 35.9674 175.918 27.2546 177.711L27.6576 179.67C36.1229 177.928 60.7255 176.421 83.2164 178.59C94.4617 179.675 105.086 181.671 112.869 184.966C120.705 188.284 125.285 192.74 125.285 198.577H127.285Z" fill="#1C1C1C"/>
<path d="M93.0315 22.2264C93.0315 27.8768 91.5028 32.9472 89.0838 36.5756C86.6601 40.2111 83.4217 42.3038 79.9798 42.3038C76.538 42.3038 73.2996 40.2111 70.8759 36.5756C68.4569 32.9472 66.9282 27.8768 66.9282 22.2264C66.9282 16.5759 68.4569 11.5056 70.8759 7.87706C73.2996 4.24158 76.538 2.14893 79.9798 2.14893C83.4217 2.14893 86.6601 4.24158 89.0838 7.87706C91.5028 11.5056 93.0315 16.5759 93.0315 22.2264Z" fill="white" stroke="black" stroke-width="2"/>
<path d="M121.135 22.2264C121.135 27.8768 119.606 32.9472 117.187 36.5756C114.763 40.2111 111.525 42.3038 108.083 42.3038C104.641 42.3038 101.403 40.2111 98.9792 36.5756C96.5602 32.9472 95.0315 27.8768 95.0315 22.2264C95.0315 16.5759 96.5602 11.5056 98.9792 7.87706C101.403 4.24158 104.641 2.14893 108.083 2.14893C111.525 2.14893 114.763 4.24158 117.187 7.87706C119.606 11.5056 121.135 16.5759 121.135 22.2264Z" fill="white" stroke="black" stroke-width="2"/>
<ellipse cx="113.417" cy="31.3902" rx="6.05673" ry="8.47943" transform="rotate(9.84568 113.417 31.3902)" fill="black"/>
<ellipse cx="85.4175" cy="31.3902" rx="6.05673" ry="8.47943" transform="rotate(9.84568 85.4175 31.3902)" fill="black"/>
<path d="M83.3716 54.2908C83.3716 62.685 100.332 61.9582 100.332 54.2908" stroke="black" stroke-width="2"/>
</svg>
