<svg width="174" height="128" viewBox="0 0 174 128" fill="none" xmlns="http://www.w3.org/2000/svg">
<path d="M31.13 42.3141H40.0759V74.2179C40.0759 77.7441 39.24 80.8455 37.5682 83.5222C35.9124 86.1989 33.5815 88.2905 30.5754 89.7972C27.5693 91.2878 24.0568 92.0331 20.038 92.0331C16.003 92.0331 12.4825 91.2878 9.47644 89.7972C6.47035 88.2905 4.13941 86.1989 2.48365 83.5222C0.827883 80.8455 0 77.7441 0 74.2179V42.3141H8.94596V73.4726C8.94596 75.5242 9.39607 77.3514 10.2963 78.9542C11.2126 80.557 12.4986 81.8152 14.1544 82.7288C15.8101 83.6264 17.7713 84.0751 20.038 84.0751C22.3046 84.0751 24.2658 83.6264 25.9216 82.7288C27.5934 81.8152 28.8794 80.557 29.7797 78.9542C30.6799 77.3514 31.13 75.5242 31.13 73.4726V42.3141Z" fill="black"/>
<path d="M90.3819 42.3141V92.0331H82.4245L59.1554 58.4944H58.7455V92.0331H49.7995V42.3141H57.8232L81.0501 76.3576H81.4841V42.3141H90.3819Z" fill="black"/>
<path d="M133.617 92.0812V42.3141H142.563V65.4666H143.165L162.86 42.3141H174L154.257 64.9376L173.524 92.0812H162.769L148.036 70.9722L142.563 77.4155V92.0812H133.617Z" fill="black"/>
<path fill-rule="evenodd" clip-rule="evenodd" d="M99.5677 92.0331L107.823 68.7603H103.445L127.848 0L118.299 42.3141H124.61L114.686 68.7603H119.36L96.5488 128L105.567 92.0331H99.5677Z" fill="black"/>
</svg>
