<svg width="234" height="197" viewBox="0 0 234 197" fill="none" xmlns="http://www.w3.org/2000/svg">
<path d="M67.2124 22.0266C67.2124 39.3149 67.0229 67.7162 67.2124 82.0291C67.574 109.44 141.475 102.204 164.718 102.487C168.646 102.534 172.554 102.406 176.446 102.559C176.623 102.566 194.455 126.509 194.888 126.745C194.943 126.508 199.328 103.095 199.337 102.934C219.23 103.076 231.297 105.068 232.348 82.0289C232.911 69.6973 233.085 33.919 232.862 22.0265C232.478 1.51289 194.401 1.85799 150.527 1.85925L150.511 1.85925C106.644 1.86052 67.2124 1.86165 67.2124 22.0266Z" fill="white"/>
<path d="M67.2124 82.0291L68.2123 82.0159L68.2123 82.016L67.2124 82.0291ZM232.862 22.0265L231.862 22.0452L231.862 22.0452L232.862 22.0265ZM232.348 82.0289L231.349 81.9833L231.349 81.9833L232.348 82.0289ZM199.337 102.934L198.338 102.88L198.39 101.927L199.344 101.934L199.337 102.934ZM194.888 126.745L195.863 126.971L194.41 127.623L194.888 126.745ZM176.446 102.559L176.408 103.558L176.407 103.558L176.446 102.559ZM164.718 102.487L164.705 103.486L164.705 103.486L164.718 102.487ZM150.511 1.85925L150.511 0.859253L150.511 1.85925ZM150.527 1.85925L150.527 2.85925L150.527 1.85925ZM66.2125 82.0424C66.0229 67.7211 66.2124 39.2999 66.2124 22.0266H68.2124C68.2124 39.3299 68.0229 67.7114 68.2123 82.0159L66.2125 82.0424ZM233.862 22.0077C234.085 33.9125 233.911 69.714 233.347 82.0745L231.349 81.9833C231.911 69.6807 232.085 33.9254 231.862 22.0452L233.862 22.0077ZM200.335 102.987C200.333 103.025 200.329 103.056 200.329 103.06C200.327 103.071 200.326 103.081 200.325 103.087C200.323 103.099 200.322 103.11 200.32 103.119C200.317 103.138 200.313 103.161 200.308 103.187C200.299 103.239 200.286 103.312 200.27 103.403C200.237 103.585 200.189 103.846 200.129 104.174C200.008 104.831 199.835 105.761 199.629 106.872C199.216 109.094 198.665 112.043 198.113 114.995C197.014 120.872 195.897 126.825 195.863 126.971L193.914 126.519C193.912 126.53 193.926 126.457 193.965 126.253C194 126.069 194.05 125.806 194.112 125.475C194.237 124.812 194.413 123.878 194.623 122.763C195.042 120.532 195.595 117.579 196.147 114.627C196.699 111.676 197.25 108.727 197.663 106.506C197.869 105.396 198.041 104.467 198.162 103.812C198.222 103.484 198.27 103.226 198.302 103.047C198.318 102.957 198.33 102.89 198.338 102.844C198.342 102.82 198.345 102.805 198.346 102.797C198.354 102.752 198.342 102.813 198.338 102.88L200.335 102.987ZM194.41 127.623C194.259 127.54 194.152 127.427 194.15 127.425C194.114 127.39 194.08 127.352 194.051 127.319C193.991 127.252 193.919 127.166 193.839 127.069C193.677 126.871 193.457 126.594 193.191 126.254C192.657 125.572 191.922 124.613 191.053 123.473C189.316 121.193 187.039 118.175 184.772 115.168C182.504 112.159 180.246 109.159 178.544 106.911C177.693 105.787 176.982 104.853 176.479 104.201C176.227 103.874 176.031 103.622 175.896 103.453C175.828 103.367 175.781 103.311 175.753 103.278C175.738 103.26 175.738 103.261 175.749 103.272C175.752 103.275 175.775 103.3 175.811 103.329C175.827 103.343 175.868 103.376 175.925 103.412C175.943 103.423 176.132 103.548 176.408 103.558L176.484 101.56C176.762 101.57 176.953 101.696 176.973 101.708C177.033 101.745 177.077 101.781 177.096 101.797C177.139 101.833 177.171 101.866 177.186 101.881C177.219 101.915 177.25 101.951 177.273 101.978C177.323 102.037 177.387 102.115 177.459 102.205C177.605 102.388 177.81 102.651 178.064 102.98C178.572 103.639 179.286 104.579 180.138 105.704C181.843 107.954 184.103 110.957 186.369 113.964C188.637 116.972 190.91 119.985 192.644 122.261C193.511 123.399 194.241 124.35 194.767 125.022C195.03 125.359 195.238 125.621 195.385 125.8C195.459 125.891 195.512 125.953 195.545 125.99C195.562 126.01 195.567 126.013 195.561 126.008C195.559 126.006 195.546 125.993 195.526 125.976C195.517 125.968 195.457 125.916 195.367 125.867L194.41 127.623ZM176.407 103.558C172.521 103.406 168.706 103.535 164.705 103.486L164.73 101.487C168.587 101.533 172.587 101.407 176.485 101.56L176.407 103.558ZM164.705 103.486C153.237 103.347 128.755 105.083 107.308 103.428C96.5652 102.6 86.4326 100.916 78.9342 97.6677C71.4316 94.4175 66.3104 89.4691 66.2125 82.0423L68.2123 82.016C68.2951 88.2948 72.5472 92.7212 79.7292 95.8325C86.9153 98.9456 96.7784 100.61 107.462 101.434C128.866 103.085 152.956 101.344 164.73 101.487L164.705 103.486ZM233.347 82.0745C233.081 87.9071 232.115 92.2654 230.431 95.4972C228.729 98.7636 226.319 100.828 223.295 102.097C220.31 103.349 216.76 103.812 212.778 103.967C208.803 104.121 204.263 103.969 199.33 103.933L199.344 101.934C204.357 101.97 208.786 102.12 212.701 101.968C216.61 101.816 219.871 101.364 222.521 100.252C225.132 99.157 227.179 97.4085 228.657 94.573C230.153 91.7029 231.089 87.6705 231.349 81.9833L233.347 82.0745ZM66.2124 22.0266C66.2124 16.5814 68.9078 12.5109 73.5158 9.52898C78.0717 6.58075 84.5341 4.66267 92.2496 3.39478C107.69 0.857436 128.61 0.859885 150.511 0.859253L150.511 2.85925C128.546 2.85989 107.816 2.86354 92.574 5.36831C84.9481 6.62147 78.8108 8.48467 74.6024 11.2081C70.446 13.8978 68.2124 17.3893 68.2124 22.0266H66.2124ZM150.511 0.859253L150.527 0.859253L150.527 2.85925L150.511 2.85925L150.511 0.859253ZM150.527 0.859253C172.427 0.858621 193.014 0.768765 208.166 3.26308C215.739 4.50977 222.071 6.41822 226.557 9.38713C231.095 12.3912 233.759 16.5 233.862 22.0078L231.862 22.0452C231.773 17.2962 229.533 13.7555 225.453 11.0549C221.32 8.31908 215.319 6.46758 207.841 5.23651C192.89 2.77529 172.501 2.85862 150.527 2.85925L150.527 0.859253Z" fill="black"/>
<circle r="4.09686" transform="matrix(-1 0 0 1 163.307 53.8061)" fill="black"/>
<circle r="4.09686" transform="matrix(-1 0 0 1 150.197 53.806)" fill="black"/>
<circle r="4.09686" transform="matrix(-1 0 0 1 137.089 53.806)" fill="black"/>
<path d="M166.697 90.4525C166.697 107.736 166.886 136.129 166.697 150.438C166.335 177.842 92.4546 170.608 69.219 170.89C65.2912 170.937 61.3846 170.81 57.4937 170.962C57.3173 170.969 39.4903 194.905 39.0566 195.141C39.0017 194.905 34.6183 171.498 34.6096 171.337C14.7219 171.479 2.65867 173.471 1.60771 150.438C1.04498 138.11 0.871247 102.342 1.09407 90.4524C1.47751 69.9446 39.5444 70.2896 83.4053 70.2909L83.4212 70.2909C127.276 70.2922 166.697 70.2933 166.697 90.4525Z" fill="white"/>
<path d="M166.697 150.438L165.697 150.425L165.697 150.425L166.697 150.438ZM1.09407 90.4524L2.0939 90.4712L2.0939 90.4711L1.09407 90.4524ZM1.60771 150.438L2.60667 150.392L2.60667 150.392L1.60771 150.438ZM34.6096 171.337L35.6082 171.283L35.5568 170.33L34.6024 170.337L34.6096 171.337ZM39.0566 195.141L38.0825 195.367L39.5348 196.019L39.0566 195.141ZM57.4937 170.962L57.5316 171.961L57.5328 171.961L57.4937 170.962ZM69.219 170.89L69.2311 171.89L69.2311 171.89L69.219 170.89ZM83.4212 70.2909L83.4212 69.2909L83.4212 70.2909ZM83.4053 70.2909L83.4052 71.2909L83.4053 70.2909ZM167.697 150.451C167.886 136.134 167.697 107.721 167.697 90.4525H165.697C165.697 107.751 165.886 136.124 165.697 150.425L167.697 150.451ZM0.0942495 90.4337C-0.128808 102.335 0.044694 138.126 0.608748 150.484L2.60667 150.392C2.04526 138.093 1.8713 102.348 2.0939 90.4712L0.0942495 90.4337ZM33.6111 171.39C33.6131 171.428 33.6171 171.459 33.6176 171.463C33.619 171.475 33.6204 171.484 33.6212 171.49C33.623 171.502 33.6248 171.513 33.6263 171.522C33.6294 171.541 33.6334 171.565 33.6379 171.59C33.6469 171.642 33.6599 171.715 33.6763 171.806C33.7092 171.988 33.757 172.249 33.8175 172.577C33.9384 173.234 34.1107 174.163 34.3173 175.274C34.7304 177.495 35.2809 180.444 35.8328 183.395C36.9317 189.27 38.0485 195.221 38.0825 195.367L40.0307 194.915C40.0332 194.926 40.0188 194.853 39.98 194.65C39.9451 194.466 39.8953 194.203 39.8327 193.872C39.7077 193.209 39.532 192.275 39.3226 191.16C38.9039 188.93 38.3506 185.977 37.7987 183.027C37.2469 180.076 36.6965 177.128 36.2836 174.908C36.0771 173.798 35.905 172.87 35.7844 172.215C35.7241 171.887 35.6767 171.629 35.6445 171.45C35.6283 171.36 35.6161 171.293 35.6081 171.247C35.604 171.223 35.6015 171.208 35.6001 171.2C35.5927 171.155 35.6046 171.217 35.6082 171.283L33.6111 171.39ZM39.5348 196.019C39.6865 195.937 39.7931 195.824 39.7953 195.821C39.8308 195.786 39.8651 195.749 39.8942 195.716C39.9539 195.649 40.0262 195.563 40.1064 195.465C40.2684 195.268 40.4879 194.991 40.7539 194.651C41.2872 193.968 42.0229 193.01 42.891 191.871C44.6279 189.591 46.9039 186.574 49.1702 183.567C51.4374 180.559 53.6947 177.561 55.3967 175.313C56.2479 174.189 56.9583 173.256 57.4607 172.604C57.7125 172.277 57.909 172.025 58.0437 171.856C58.1121 171.771 58.1587 171.714 58.1864 171.681C58.202 171.663 58.2015 171.665 58.191 171.675C58.1879 171.679 58.1647 171.703 58.1292 171.733C58.1129 171.746 58.0723 171.78 58.0146 171.815C57.997 171.826 57.8077 171.951 57.5316 171.961L57.4558 169.963C57.1782 169.973 56.987 170.099 56.967 170.111C56.9069 170.148 56.8633 170.184 56.8435 170.201C56.8009 170.236 56.7686 170.269 56.7542 170.284C56.7213 170.318 56.69 170.354 56.6666 170.381C56.6165 170.44 56.5529 170.518 56.481 170.608C56.335 170.791 56.1299 171.054 55.8765 171.383C55.3686 172.042 54.6539 172.981 53.8023 174.106C52.0985 176.356 49.8389 179.357 47.5731 182.364C45.3064 185.371 43.0333 188.384 41.3001 190.659C40.4331 191.796 39.7036 192.747 39.1782 193.419C38.9149 193.756 38.7069 194.018 38.56 194.197C38.4857 194.287 38.4332 194.349 38.4 194.386C38.3826 194.406 38.3784 194.41 38.3837 194.405C38.3861 194.402 38.3987 194.39 38.4187 194.373C38.4283 194.364 38.4876 194.312 38.5783 194.263L39.5348 196.019ZM57.5328 171.961C61.4178 171.809 65.2313 171.938 69.2311 171.89L69.2068 169.89C65.351 169.937 61.3513 169.81 57.4545 169.963L57.5328 171.961ZM69.2311 171.89C80.6963 171.751 105.172 173.485 126.613 171.832C137.352 171.003 147.482 169.32 154.978 166.073C162.479 162.823 167.599 157.876 167.697 150.451L165.697 150.425C165.614 156.702 161.363 161.127 154.183 164.237C146.999 167.35 137.139 169.014 126.459 169.837C105.06 171.488 80.9773 169.747 69.2068 169.89L69.2311 171.89ZM0.608747 150.484C0.874804 156.314 1.84038 160.672 3.52411 163.903C5.22584 167.168 7.63517 169.232 10.658 170.5C13.6422 171.752 17.1917 172.215 21.1719 172.37C25.1464 172.524 29.6843 172.372 34.6168 172.337L34.6024 170.337C29.5911 170.373 25.1632 170.523 21.2495 170.371C17.3417 170.22 14.0807 169.767 11.4318 168.656C8.82146 167.561 6.77494 165.813 5.29773 162.978C3.80253 160.109 2.86609 156.078 2.60667 150.392L0.608747 150.484ZM167.697 90.4525C167.697 85.0088 165.002 80.9394 160.395 77.9582C155.841 75.0108 149.38 73.0932 141.666 71.8257C126.23 69.2891 105.316 69.2915 83.4212 69.2909L83.4211 71.2909C105.38 71.2915 126.104 71.2952 141.342 73.7992C148.966 75.052 155.101 76.9147 159.309 79.6373C163.464 82.3262 165.697 85.8166 165.697 90.4525H167.697ZM83.4212 69.2909L83.4053 69.2909L83.4052 71.2909L83.4211 71.2909L83.4212 69.2909ZM83.4053 69.2909C61.5121 69.2903 40.931 69.2004 25.7832 71.694C18.2121 72.9404 11.8812 74.8483 7.39707 77.8164C2.85987 80.8197 0.197202 84.9273 0.0942487 90.4337L2.0939 90.4711C2.18266 85.7236 4.42214 82.184 8.50098 79.4842C12.6329 76.7492 18.6319 74.8982 26.1081 73.6675C41.0548 71.207 61.4375 71.2903 83.4052 71.2909L83.4053 69.2909Z" fill="black"/>
<circle cx="70.9556" cy="122.224" r="4.0957" fill="black"/>
<circle cx="84.0625" cy="122.224" r="4.0957" fill="black"/>
<circle cx="97.1685" cy="122.224" r="4.0957" fill="black"/>
</svg>
