<svg width="223" height="190" viewBox="0 0 223 190" fill="none" xmlns="http://www.w3.org/2000/svg">
<path d="M221.402 27.6172L221.402 188.962L22.0073 188.962C11.646 188.962 1.08865 177.395 1.08865 167.223C0.88945 155.456 1.08819 23.685 1.08819 23.685C1.08864 8.29158 10.4848 0.999969 22.0072 0.999969L22.0073 27.6172L221.402 27.6172Z" fill="#A466FB"/>
<path d="M22.0073 27.6172L221.402 27.6172L221.402 188.962L22.0073 188.962C11.646 188.962 1.08865 177.395 1.08865 167.223M22.0073 27.6172L22.0072 0.999961C10.4848 0.999962 1.08864 8.29159 1.08819 23.685C1.08819 23.685 0.88945 155.456 1.08865 167.223M22.0073 27.6172L22.0073 146.681C11.2956 147.643 1.08865 167.223 1.08865 167.223" stroke="black" stroke-width="2" stroke-linejoin="round"/>
<path d="M117.097 92.0431C117.097 99.5983 115.086 106.392 111.887 111.268C108.682 116.152 104.368 119.007 99.7464 119.007C95.1247 119.007 90.8113 116.152 87.6062 111.268C84.4068 106.392 82.3953 99.5983 82.3953 92.0431C82.3953 84.488 84.4068 77.6939 87.6062 72.8185C90.8113 67.9347 95.1247 65.0795 99.7464 65.0795C104.368 65.0795 108.682 67.9347 111.887 72.8185C115.086 77.6939 117.097 84.488 117.097 92.0431Z" fill="white" stroke="black" stroke-width="2"/>
<path d="M155.548 92.0431C155.548 99.5889 153.443 106.376 150.093 111.25C146.739 116.128 142.208 119.007 137.323 119.007C132.438 119.007 127.906 116.128 124.553 111.25C121.202 106.376 119.098 99.5889 119.098 92.0431C119.098 84.4974 121.202 77.7098 124.553 72.8364C127.906 67.9585 132.438 65.0795 137.323 65.0795C142.208 65.0795 146.739 67.9585 150.093 72.8364C153.443 77.7098 155.548 84.4974 155.548 92.0431Z" fill="white" stroke="black" stroke-width="2"/>
<ellipse cx="107.611" cy="95.5383" rx="8.73863" ry="12.2341" fill="black"/>
<ellipse cx="146.061" cy="95.5383" rx="8.73863" ry="12.2341" fill="black"/>
<path d="M104.116 135.737C104.116 147.91 126.836 146.856 126.836 135.737" stroke="black" stroke-width="2"/>
</svg>
