<svg width="170" height="259" viewBox="0 0 170 259" fill="none" xmlns="http://www.w3.org/2000/svg">
<path d="M18.8886 119.175C17.7735 115.991 21.0999 113.55 21.0999 113.55L127.607 73.777C130.39 71.7555 134.439 74.1801 134.439 78.1975C134.439 80.6482 131.426 82.6153 131.426 82.6153C131.426 82.6153 136.047 82.2149 136.851 86.2324C137.273 88.3446 135.445 90.2484 135.445 90.2484C135.445 90.2484 139.645 90.9893 140.87 95.0707C142.076 99.0881 138.459 101.296 138.459 101.296L168 178.23L134.44 256.771L61.6934 218.203L31.5497 139.864C31.5497 139.864 28.1267 141.07 25.9221 137.455C23.7176 133.839 26.7267 130.623 26.7267 130.623C26.7267 130.623 23.7116 131.228 22.3049 128.616C20.6455 125.536 24.1143 122.187 24.1143 122.187C24.1143 122.187 20.2953 123.193 18.8886 119.175Z" fill="#FFCB80"/>
<path d="M127.607 73.777L21.0999 113.55C21.0999 113.55 -0.701699 68.438 1.10657 56.7878C2.91485 45.1376 25.8147 30.1632 47.3268 22.0386C68.8821 13.8976 97.165 12.3906 105.404 17.4139C113.643 22.4372 127.607 73.777 127.607 73.777Z" fill="#F4A0C4"/>
<path d="M138.659 100.896L165.588 172.005L157.951 186.066L131.425 181.044L117.157 208.965L86.8121 196.712L62.4962 218.004L31.3478 139.865L61.2905 129.219L106.104 112.748L138.659 100.896Z" fill="#87B1FA"/>
<path d="M126.602 232.065C119.362 234.221 108.917 242.71 108.917 242.71L134.238 255.968L144.688 232.065C144.688 232.065 134.048 229.848 126.602 232.065Z" fill="black"/>
<path d="M22.9065 129.018C19.6912 124.398 25.9219 121.385 25.9219 121.385C25.9219 121.385 20.7307 123.796 18.8896 119.778C16.9003 115.437 22.6965 112.949 22.6965 112.949L127.806 73.7794C127.806 73.7794 132.7 71.77 134.236 76.1897C135.772 80.6094 131.222 82.6178 131.222 82.6178C131.222 82.6178 136.648 82.015 137.251 86.635C137.582 89.1747 134.236 90.8535 134.236 90.8535C134.236 90.8535 139.915 90.8735 140.667 94.4685C141.265 97.3261 139.26 100.495 139.26 100.495L31.1448 139.866C31.1448 139.866 27.3824 139.866 25.9198 137.656C22.9065 133.102 28.5324 129.622 28.5324 129.622C28.5324 129.622 24.7142 131.616 22.9065 129.018Z" fill="#F8F8FF"/>
<path d="M18.8886 119.175L19.8324 118.845L19.8324 118.845L18.8886 119.175ZM24.1143 122.187L24.8089 122.906L27.5669 120.243L23.8596 121.22L24.1143 122.187ZM22.3049 128.616L21.4245 129.09L21.4245 129.09L22.3049 128.616ZM26.7267 130.623L27.4569 131.307L29.5871 129.031L26.5303 129.643L26.7267 130.623ZM31.5497 139.864L32.483 139.504L32.134 138.597L31.2173 138.92L31.5497 139.864ZM61.6934 218.203L60.7601 218.563L60.8945 218.912L61.225 219.087L61.6934 218.203ZM138.459 101.296L137.938 100.443L137.227 100.877L137.526 101.655L138.459 101.296ZM140.87 95.0707L141.828 94.7832L141.828 94.7832L140.87 95.0707ZM135.445 90.2484L134.724 89.5557L133.425 90.9076L135.271 91.2332L135.445 90.2484ZM136.851 86.2324L137.831 86.0362L137.831 86.0362L136.851 86.2324ZM131.426 82.6153L130.879 81.7779L131.512 83.6116L131.426 82.6153ZM127.607 73.777L127.957 74.7138L128.085 74.6661L128.195 74.586L127.607 73.777ZM168 178.23L168.92 178.623L169.079 178.25L168.934 177.872L168 178.23ZM134.44 256.771L133.972 257.654L134.932 258.164L135.36 257.164L134.44 256.771ZM47.3268 22.0386L47.6801 22.9741L47.6801 22.9741L47.3268 22.0386ZM138.659 100.896L139.594 100.542L139.245 99.619L138.317 99.9567L138.659 100.896ZM165.588 172.005L166.466 172.482L166.685 172.079L166.523 171.651L165.588 172.005ZM157.951 186.066L157.765 187.048L158.482 187.184L158.83 186.543L157.951 186.066ZM117.157 208.965L116.782 209.892L117.631 210.235L118.047 209.42L117.157 208.965ZM62.4962 218.004L61.5673 218.375L62.091 219.688L63.155 218.757L62.4962 218.004ZM31.3478 139.865L31.0128 138.923L30.0343 139.271L30.4188 140.236L31.3478 139.865ZM106.104 112.748L105.762 111.808L105.759 111.809L106.104 112.748ZM108.917 242.71L108.287 241.934L107.109 242.892L108.454 243.596L108.917 242.71ZM126.602 232.065L126.316 231.107L126.602 232.065ZM144.688 232.065L145.604 232.465L146.098 231.337L144.892 231.086L144.688 232.065ZM134.238 255.968L133.774 256.854L134.725 257.352L135.154 256.369L134.238 255.968ZM25.9219 121.385L25.5764 120.447L25.5379 120.461L25.5007 120.478L25.9219 121.385ZM22.9065 129.018L23.7273 128.447L23.7273 128.447L22.9065 129.018ZM28.5324 129.622L28.188 128.683L28.127 128.705L28.0694 128.735L28.5324 129.622ZM25.9198 137.656L26.7538 137.104L26.7538 137.104L25.9198 137.656ZM31.1448 139.866V140.866H31.3212L31.487 140.806L31.1448 139.866ZM139.26 100.495L139.602 101.435L139.923 101.318L140.105 101.03L139.26 100.495ZM140.667 94.4685L141.646 94.2638L141.646 94.2638L140.667 94.4685ZM137.251 86.635L138.242 86.5056L138.242 86.5056L137.251 86.635ZM127.806 73.7794L128.155 74.7165L128.17 74.7107L128.185 74.7045L127.806 73.7794ZM22.6965 112.949L22.3473 112.012L22.3245 112.02L22.302 112.03L22.6965 112.949ZM18.8896 119.778L19.7987 119.362L19.7987 119.362L18.8896 119.778ZM21.0999 113.55C20.5083 112.743 20.508 112.744 20.5076 112.744C20.5075 112.744 20.5071 112.744 20.5069 112.744C20.5064 112.745 20.5058 112.745 20.5052 112.746C20.504 112.746 20.5025 112.748 20.5009 112.749C20.4976 112.751 20.4935 112.754 20.4887 112.758C20.479 112.765 20.4662 112.775 20.4505 112.787C20.4193 112.811 20.3765 112.845 20.3242 112.888C20.2198 112.974 20.0764 113.097 19.9103 113.254C19.5801 113.567 19.1482 114.025 18.7517 114.602C17.9647 115.749 17.2403 117.494 17.9448 119.506L19.8324 118.845C19.4218 117.672 19.8031 116.604 20.4005 115.734C20.6962 115.303 21.0262 114.952 21.2849 114.707C21.4132 114.586 21.521 114.493 21.5941 114.433C21.6306 114.403 21.6582 114.381 21.6751 114.368C21.6836 114.362 21.6893 114.357 21.6921 114.355C21.6935 114.354 21.6942 114.354 21.6941 114.354C21.6941 114.354 21.6939 114.354 21.6934 114.354C21.6932 114.354 21.693 114.355 21.6926 114.355C21.6925 114.355 21.6922 114.355 21.6921 114.355C21.6919 114.355 21.6916 114.356 21.0999 113.55ZM17.9448 119.506C18.7741 121.874 20.3798 122.846 21.8124 123.164C22.5013 123.317 23.1279 123.315 23.5783 123.278C23.8053 123.259 23.9928 123.231 24.1278 123.206C24.1955 123.193 24.2504 123.182 24.2911 123.173C24.3114 123.168 24.3282 123.164 24.3412 123.161C24.3477 123.159 24.3533 123.158 24.3579 123.157C24.3603 123.156 24.3623 123.156 24.3642 123.155C24.3651 123.155 24.366 123.155 24.3668 123.154C24.3672 123.154 24.3677 123.154 24.3679 123.154C24.3684 123.154 24.369 123.154 24.1143 122.187C23.8596 121.22 23.8601 121.22 23.8606 121.22C23.8607 121.22 23.8612 121.219 23.8615 121.219C23.862 121.219 23.8625 121.219 23.863 121.219C23.8639 121.219 23.8646 121.219 23.8651 121.218C23.866 121.218 23.8661 121.218 23.8654 121.218C23.8639 121.219 23.859 121.22 23.851 121.222C23.835 121.225 23.8066 121.231 23.7671 121.239C23.6878 121.253 23.5659 121.272 23.4129 121.285C23.1033 121.31 22.6872 121.309 22.2455 121.211C21.417 121.028 20.4098 120.494 19.8324 118.845L17.9448 119.506ZM24.1143 122.187C23.4197 121.467 23.4195 121.468 23.4192 121.468C23.4191 121.468 23.4188 121.468 23.4186 121.469C23.4181 121.469 23.4176 121.469 23.4171 121.47C23.416 121.471 23.4147 121.472 23.4132 121.474C23.4102 121.477 23.4064 121.48 23.4018 121.485C23.3925 121.494 23.3801 121.507 23.3647 121.522C23.334 121.553 23.2915 121.597 23.2394 121.652C23.1353 121.763 22.9921 121.922 22.8274 122.121C22.5001 122.517 22.0769 123.087 21.7073 123.771C20.9851 125.109 20.3577 127.11 21.4245 129.09L23.1853 128.142C22.5927 127.042 22.87 125.828 23.4673 124.721C23.7575 124.184 24.0978 123.723 24.369 123.395C24.5036 123.233 24.6184 123.106 24.6976 123.021C24.7371 122.979 24.7675 122.948 24.7868 122.928C24.7964 122.919 24.8032 122.912 24.807 122.908C24.8089 122.906 24.81 122.905 24.8103 122.905C24.8105 122.905 24.8104 122.905 24.8102 122.905C24.8101 122.905 24.8099 122.905 24.8097 122.906C24.8096 122.906 24.8094 122.906 24.8093 122.906C24.8091 122.906 24.8089 122.906 24.1143 122.187ZM21.4245 129.09C22.3089 130.732 23.7206 131.367 24.8579 131.582C25.4196 131.688 25.923 131.695 26.2855 131.676C26.4681 131.666 26.6185 131.65 26.7272 131.635C26.7817 131.628 26.826 131.621 26.859 131.616C26.8755 131.613 26.8892 131.61 26.8999 131.608C26.9053 131.607 26.9099 131.607 26.9138 131.606C26.9157 131.605 26.9175 131.605 26.9191 131.605C26.9198 131.605 26.9206 131.605 26.9213 131.604C26.9216 131.604 26.9221 131.604 26.9222 131.604C26.9227 131.604 26.9232 131.604 26.7267 130.623C26.5303 129.643 26.5307 129.643 26.5311 129.643C26.5313 129.643 26.5317 129.643 26.5319 129.643C26.5324 129.643 26.5329 129.642 26.5333 129.642C26.5341 129.642 26.5348 129.642 26.5353 129.642C26.5362 129.642 26.5365 129.642 26.5361 129.642C26.5354 129.642 26.532 129.643 26.526 129.644C26.5142 129.646 26.4923 129.649 26.4616 129.653C26.4 129.661 26.3039 129.672 26.1818 129.678C25.9349 129.691 25.5966 129.686 25.2287 129.616C24.5068 129.48 23.7075 129.111 23.1853 128.142L21.4245 129.09ZM26.7267 130.623C25.9966 129.94 25.9963 129.941 25.9959 129.941C25.9958 129.941 25.9955 129.941 25.9952 129.942C25.9947 129.942 25.9942 129.943 25.9936 129.943C25.9924 129.945 25.991 129.946 25.9894 129.948C25.9863 129.951 25.9825 129.955 25.9779 129.96C25.9689 129.97 25.9571 129.984 25.9428 130C25.9142 130.032 25.8755 130.077 25.8288 130.134C25.7357 130.248 25.6099 130.409 25.4687 130.613C25.1877 131.019 24.8369 131.606 24.5628 132.328C24.0088 133.788 23.7632 135.835 25.0683 137.975L26.7759 136.934C25.8765 135.459 26.0332 134.09 26.4326 133.038C26.6353 132.504 26.8989 132.061 27.1133 131.751C27.2198 131.598 27.3119 131.48 27.3746 131.403C27.406 131.365 27.4298 131.337 27.4442 131.321C27.4514 131.313 27.4562 131.308 27.4584 131.305C27.4595 131.304 27.4599 131.304 27.4597 131.304C27.4596 131.304 27.4593 131.304 27.4588 131.305C27.4586 131.305 27.4583 131.305 27.458 131.306C27.4578 131.306 27.4575 131.306 27.4574 131.306C27.4572 131.306 27.4569 131.307 26.7267 130.623ZM25.0683 137.975C26.3414 140.063 28.0269 140.82 29.4309 141.006C30.1139 141.097 30.7105 141.051 31.1378 140.983C31.3525 140.949 31.5279 140.909 31.6544 140.875C31.7177 140.858 31.7691 140.843 31.8074 140.831C31.8265 140.825 31.8424 140.82 31.8549 140.816C31.8612 140.814 31.8666 140.812 31.8711 140.811C31.8734 140.81 31.8755 140.809 31.8773 140.808C31.8782 140.808 31.8791 140.808 31.8799 140.807C31.8803 140.807 31.8809 140.807 31.8811 140.807C31.8816 140.807 31.8822 140.807 31.5497 139.864C31.2173 138.92 31.2178 138.92 31.2183 138.92C31.2184 138.92 31.2189 138.92 31.2192 138.92C31.2198 138.92 31.2204 138.919 31.2209 138.919C31.2219 138.919 31.2227 138.919 31.2233 138.918C31.2245 138.918 31.225 138.918 31.2247 138.918C31.2241 138.918 31.2205 138.919 31.2141 138.921C31.2011 138.925 31.1768 138.933 31.1423 138.942C31.0729 138.96 30.9637 138.986 30.823 139.008C30.5396 139.053 30.1427 139.083 29.6943 139.024C28.8357 138.91 27.7074 138.462 26.7759 136.934L25.0683 137.975ZM30.6164 140.223L60.7601 218.563L62.6267 217.844L32.483 139.504L30.6164 140.223ZM138.459 101.296C138.98 102.15 138.981 102.15 138.981 102.149C138.981 102.149 138.982 102.149 138.982 102.149C138.983 102.148 138.983 102.148 138.984 102.147C138.986 102.147 138.987 102.145 138.989 102.144C138.993 102.142 138.998 102.139 139.004 102.135C139.015 102.128 139.03 102.119 139.047 102.107C139.083 102.084 139.131 102.052 139.189 102.01C139.306 101.928 139.465 101.809 139.65 101.653C140.016 101.344 140.493 100.883 140.93 100.271C141.817 99.0312 142.54 97.1579 141.828 94.7832L139.912 95.3582C140.405 97.0009 139.924 98.2404 139.303 99.1086C138.987 99.5514 138.635 99.893 138.361 100.124C138.225 100.238 138.111 100.323 138.035 100.377C137.997 100.404 137.969 100.423 137.952 100.434C137.943 100.44 137.938 100.443 137.935 100.445C137.934 100.445 137.934 100.446 137.934 100.445C137.934 100.445 137.935 100.445 137.936 100.444C137.936 100.444 137.936 100.444 137.937 100.444C137.937 100.444 137.937 100.443 137.937 100.443C137.938 100.443 137.938 100.443 138.459 101.296ZM141.828 94.7832C141.122 92.4314 139.553 91.0461 138.198 90.2632C137.523 89.8727 136.892 89.6261 136.427 89.4763C136.194 89.4011 136.001 89.3495 135.862 89.316C135.792 89.2993 135.736 89.287 135.695 89.2785C135.674 89.2742 135.657 89.2709 135.645 89.2685C135.638 89.2673 135.633 89.2662 135.629 89.2654C135.626 89.265 135.624 89.2647 135.623 89.2644C135.622 89.2642 135.621 89.2641 135.62 89.264C135.62 89.2639 135.62 89.2638 135.619 89.2638C135.619 89.2637 135.619 89.2636 135.445 90.2484C135.271 91.2332 135.271 91.2332 135.27 91.2331C135.27 91.2331 135.27 91.233 135.27 91.233C135.269 91.2329 135.269 91.2328 135.268 91.2328C135.268 91.2326 135.267 91.2326 135.267 91.2325C135.267 91.2325 135.268 91.2326 135.269 91.2329C135.272 91.2335 135.279 91.2349 135.29 91.237C135.311 91.2414 135.346 91.249 135.394 91.2605C135.489 91.2834 135.633 91.3216 135.813 91.3797C136.175 91.4963 136.67 91.69 137.198 91.9948C138.249 92.6028 139.393 93.6286 139.912 95.3582L141.828 94.7832ZM135.445 90.2484C136.166 90.9411 136.166 90.9409 136.167 90.9406C136.167 90.9405 136.167 90.9403 136.167 90.9401C136.167 90.9397 136.168 90.9393 136.168 90.9389C136.169 90.938 136.17 90.937 136.171 90.9359C136.173 90.9337 136.176 90.931 136.179 90.9278C136.185 90.9215 136.192 90.9133 136.202 90.9032C136.22 90.8831 136.245 90.8556 136.275 90.8211C136.335 90.7522 136.417 90.655 136.513 90.5327C136.702 90.2894 136.95 89.9401 137.184 89.512C137.64 88.6763 138.109 87.4216 137.831 86.0362L135.87 86.4286C136.016 87.1554 135.781 87.9087 135.429 88.553C135.258 88.8649 135.075 89.1235 134.935 89.3032C134.866 89.3924 134.808 89.4604 134.77 89.5039C134.751 89.5256 134.737 89.5411 134.729 89.5499C134.725 89.5543 134.722 89.557 134.721 89.558C134.721 89.5585 134.721 89.5586 134.721 89.5582C134.721 89.558 134.722 89.5577 134.722 89.5573C134.722 89.5571 134.723 89.5569 134.723 89.5566C134.723 89.5565 134.723 89.5563 134.723 89.5562C134.723 89.556 134.724 89.5557 135.445 90.2484ZM137.831 86.0362C137.337 83.5667 135.628 82.4408 134.142 81.9649C133.411 81.7309 132.719 81.6456 132.217 81.6171C131.963 81.6028 131.753 81.6026 131.602 81.6063C131.526 81.6081 131.465 81.6109 131.421 81.6135C131.398 81.6147 131.38 81.6159 131.367 81.6169C131.36 81.6174 131.354 81.6178 131.35 81.6182C131.347 81.6184 131.345 81.6186 131.344 81.6187C131.343 81.6188 131.342 81.6188 131.341 81.6189C131.341 81.6189 131.34 81.619 131.34 81.619C131.34 81.619 131.339 81.6191 131.426 82.6153C131.512 83.6116 131.512 83.6116 131.511 83.6117C131.511 83.6117 131.511 83.6117 131.51 83.6117C131.51 83.6118 131.51 83.6118 131.509 83.6118C131.509 83.6119 131.508 83.6119 131.508 83.6119C131.508 83.6119 131.509 83.6118 131.511 83.6117C131.515 83.6114 131.523 83.6109 131.535 83.6102C131.559 83.6088 131.598 83.6069 131.65 83.6057C131.755 83.6031 131.911 83.603 132.104 83.6139C132.493 83.636 133.007 83.7017 133.532 83.8697C134.557 84.198 135.561 84.8807 135.87 86.4286L137.831 86.0362ZM131.426 82.6153C131.972 83.4527 131.973 83.4526 131.973 83.4524C131.973 83.4523 131.973 83.4522 131.973 83.452C131.974 83.4518 131.974 83.4515 131.975 83.4511C131.976 83.4505 131.977 83.4497 131.978 83.4488C131.981 83.447 131.984 83.4447 131.989 83.442C131.997 83.4364 132.008 83.429 132.022 83.4196C132.049 83.4009 132.087 83.3746 132.135 83.3411C132.229 83.2741 132.36 83.1778 132.516 83.055C132.825 82.8108 133.241 82.4555 133.66 82.0119C134.462 81.1615 135.439 79.8161 135.439 78.1975H133.439C133.439 79.0297 132.909 79.8932 132.205 80.639C131.871 80.9935 131.533 81.2832 131.277 81.4843C131.151 81.5843 131.046 81.6608 130.976 81.711C130.941 81.736 130.914 81.7543 130.897 81.7657C130.889 81.7713 130.883 81.7752 130.88 81.7773C130.879 81.7783 130.878 81.7789 130.877 81.779C130.877 81.779 130.877 81.779 130.878 81.7788C130.878 81.7787 130.878 81.7786 130.878 81.7785C130.878 81.7784 130.879 81.7783 130.879 81.7782C130.879 81.7781 130.879 81.7779 131.426 82.6153ZM135.439 78.1975C135.439 75.8405 134.247 73.9125 132.599 72.8762C130.951 71.8391 128.793 71.6794 127.02 72.968L128.195 74.586C129.204 73.8531 130.463 73.895 131.534 74.5691C132.607 75.2441 133.439 76.5371 133.439 78.1975H135.439ZM21.4497 114.486L127.957 74.7138L127.258 72.8402L20.7501 112.613L21.4497 114.486ZM127.607 73.777C128.572 73.5145 128.572 73.5143 128.572 73.5138C128.572 73.5134 128.572 73.5128 128.572 73.5119C128.571 73.5103 128.571 73.5079 128.57 73.5047C128.568 73.4983 128.565 73.4888 128.562 73.4763C128.555 73.4513 128.545 73.4141 128.532 73.3652C128.505 73.2672 128.465 73.1221 128.412 72.9327C128.308 72.5541 128.153 71.9986 127.954 71.2902C127.555 69.8734 126.976 67.8446 126.256 65.3946C124.816 60.4956 122.809 53.9082 120.543 47.1608C118.279 40.4181 115.749 33.4945 113.262 27.9317C112.019 25.1517 110.777 22.6888 109.573 20.7504C108.392 18.8484 107.169 17.319 105.924 16.5601L104.883 18.2677C105.698 18.7647 106.714 19.9384 107.874 21.8056C109.011 23.6363 110.211 26.0085 111.436 28.748C113.884 34.2242 116.391 41.0774 118.647 47.7975C120.902 54.513 122.902 61.0745 124.337 65.9587C125.055 68.4003 125.632 70.4217 126.029 71.8321C126.227 72.5374 126.381 73.0898 126.485 73.4657C126.537 73.6536 126.576 73.7973 126.603 73.894C126.616 73.9423 126.626 73.9788 126.633 74.0032C126.636 74.0154 126.638 74.0245 126.64 74.0306C126.641 74.0336 126.642 74.0359 126.642 74.0374C126.642 74.0381 126.642 74.0386 126.642 74.039C126.643 74.0393 126.643 74.0395 127.607 73.777ZM105.924 16.5601C103.671 15.1861 100.177 14.3202 95.9898 13.878C91.7702 13.4324 86.7279 13.4059 81.2882 13.7922C70.412 14.5644 57.8553 16.9932 46.9735 21.1031L47.6801 22.9741C58.3536 18.9429 70.716 16.5478 81.4298 15.7871C86.785 15.4069 91.7055 15.4367 95.7797 15.867C99.886 16.3006 103.017 17.1301 104.883 18.2677L105.924 16.5601ZM46.9735 21.1031C36.1474 25.1918 24.9646 31.0058 16.2438 37.2794C11.8838 40.4158 8.11399 43.6852 5.30943 46.9322C2.51713 50.165 0.611739 53.456 0.118406 56.6344L2.09474 56.9412C2.50554 54.2945 4.14074 51.3449 6.823 48.2395C9.49299 45.1483 13.1317 41.9819 17.4117 38.9029C25.9709 32.7456 36.9941 27.01 47.6801 22.9741L46.9735 21.1031ZM0.118406 56.6344C-0.133468 58.2572 0.0333349 60.3677 0.462333 62.749C0.89489 65.1501 1.60996 67.9087 2.51117 70.8635C4.31389 76.774 6.88277 83.5377 9.49998 89.917C12.1187 96.3 14.793 102.316 16.8121 106.734C17.8219 108.944 18.6681 110.756 19.2622 112.015C19.5593 112.645 19.7933 113.137 19.9532 113.471C20.0332 113.639 20.0946 113.767 20.1361 113.853C20.1569 113.896 20.1727 113.929 20.1833 113.951C20.1886 113.962 20.1926 113.97 20.1954 113.976C20.1967 113.979 20.1977 113.981 20.1984 113.982C20.1988 113.983 20.1991 113.984 20.1992 113.984C20.1994 113.984 20.1996 113.985 21.0999 113.55C22.0003 113.114 22.0002 113.114 22.0001 113.114C21.9999 113.114 21.9997 113.113 21.9994 113.113C21.9988 113.111 21.9978 113.109 21.9965 113.107C21.994 113.101 21.9901 113.093 21.985 113.083C21.9746 113.061 21.9592 113.029 21.9387 112.987C21.8979 112.901 21.8371 112.775 21.7578 112.609C21.5992 112.277 21.3666 111.788 21.0711 111.162C20.48 109.909 19.6371 108.105 18.6312 105.903C16.619 101.499 13.956 95.5091 11.3503 89.1579C8.74315 82.8031 6.20067 76.1045 4.42417 70.28C3.53577 67.3673 2.84425 64.6903 2.43065 62.3944C2.01349 60.0788 1.89455 58.231 2.09474 56.9412L0.118406 56.6344ZM168.934 177.872L139.393 100.938L137.526 101.655L167.066 178.588L168.934 177.872ZM61.225 219.087L133.972 257.654L134.908 255.887L62.1618 217.32L61.225 219.087ZM135.36 257.164L168.92 178.623L167.08 177.837L133.52 256.378L135.36 257.164ZM137.724 101.251L164.652 172.359L166.523 171.651L139.594 100.542L137.724 101.251ZM164.709 171.528L157.072 185.589L158.83 186.543L166.466 172.482L164.709 171.528ZM158.137 185.083L131.611 180.061L131.239 182.027L157.765 187.048L158.137 185.083ZM130.534 180.589L116.266 208.51L118.047 209.42L132.315 181.499L130.534 180.589ZM117.531 208.038L87.1865 195.785L86.4377 197.639L116.782 209.892L117.531 208.038ZM86.1533 195.96L61.8374 217.252L63.155 218.757L87.4709 197.464L86.1533 195.96ZM63.4251 217.634L32.2767 139.495L30.4188 140.236L61.5673 218.375L63.4251 217.634ZM31.6828 140.808L61.6255 130.161L60.9555 128.277L31.0128 138.923L31.6828 140.808ZM60.3551 129.573L85.8767 197.066L87.7475 196.358L62.2258 128.866L60.3551 129.573ZM61.6355 130.158L106.449 113.686L105.759 111.809L60.9455 128.281L61.6355 130.158ZM106.446 113.687L139.001 101.836L138.317 99.9567L105.762 111.808L106.446 113.687ZM105.166 113.095L130.487 181.392L132.362 180.696L107.042 112.4L105.166 113.095ZM108.917 242.71C109.548 243.486 109.548 243.486 109.548 243.486C109.548 243.486 109.548 243.486 109.548 243.486C109.549 243.486 109.549 243.486 109.549 243.485C109.55 243.485 109.552 243.483 109.554 243.481C109.559 243.478 109.566 243.472 109.576 243.464C109.595 243.449 109.624 243.426 109.662 243.395C109.738 243.334 109.852 243.243 110 243.127C110.295 242.894 110.727 242.557 111.267 242.147C112.35 241.325 113.867 240.207 115.607 239.023C119.118 236.635 123.428 234.054 126.887 233.024L126.316 231.107C122.536 232.233 118.004 234.974 114.482 237.369C112.706 238.577 111.16 239.717 110.058 240.554C109.506 240.973 109.065 241.317 108.761 241.556C108.609 241.676 108.491 241.77 108.411 241.834C108.371 241.866 108.34 241.891 108.32 241.908C108.309 241.916 108.301 241.923 108.296 241.927C108.293 241.929 108.291 241.931 108.289 241.932C108.289 241.933 108.288 241.933 108.288 241.934C108.287 241.934 108.287 241.934 108.287 241.934C108.287 241.934 108.287 241.934 108.917 242.71ZM126.887 233.024C130.432 231.968 134.806 231.957 138.36 232.231C140.125 232.367 141.661 232.571 142.755 232.741C143.302 232.826 143.738 232.902 144.035 232.957C144.184 232.985 144.298 233.007 144.374 233.021C144.412 233.029 144.44 233.035 144.459 233.038C144.468 233.04 144.475 233.042 144.479 233.043C144.481 233.043 144.483 233.043 144.483 233.044C144.484 233.044 144.484 233.044 144.484 233.044C144.484 233.044 144.484 233.044 144.484 233.044C144.484 233.044 144.484 233.044 144.688 232.065C144.892 231.086 144.892 231.086 144.891 231.086C144.891 231.086 144.891 231.085 144.891 231.085C144.89 231.085 144.889 231.085 144.889 231.085C144.887 231.085 144.884 231.084 144.881 231.084C144.875 231.082 144.867 231.081 144.856 231.078C144.834 231.074 144.801 231.067 144.76 231.059C144.676 231.043 144.554 231.019 144.397 230.99C144.084 230.933 143.63 230.853 143.063 230.765C141.929 230.589 140.341 230.377 138.514 230.237C134.887 229.957 130.218 229.945 126.316 231.107L126.887 233.024ZM143.772 231.664L133.322 255.568L135.154 256.369L145.604 232.465L143.772 231.664ZM134.702 255.082L109.381 241.825L108.454 243.596L133.774 256.854L134.702 255.082ZM25.9219 121.385C25.4865 120.485 25.4861 120.485 25.4857 120.485C25.4856 120.485 25.4851 120.486 25.4848 120.486C25.4841 120.486 25.4834 120.487 25.4825 120.487C25.4808 120.488 25.4787 120.489 25.4763 120.49C25.4713 120.492 25.4649 120.496 25.4571 120.5C25.4414 120.507 25.42 120.518 25.3933 120.532C25.3399 120.56 25.2654 120.599 25.1737 120.65C24.9907 120.752 24.7371 120.901 24.4452 121.095C23.8672 121.479 23.1103 122.057 22.4534 122.814C21.7981 123.568 21.1989 124.551 21.0311 125.736C20.8593 126.949 21.1565 128.254 22.0857 129.59L23.7273 128.447C23.0489 127.472 22.9191 126.668 23.0113 126.017C23.1074 125.338 23.463 124.701 23.9635 124.125C24.4623 123.551 25.0622 123.087 25.5519 122.761C25.7938 122.6 26.002 122.478 26.1471 122.397C26.2195 122.357 26.2757 122.327 26.3121 122.308C26.3302 122.299 26.3434 122.292 26.3511 122.289C26.3549 122.287 26.3574 122.285 26.3584 122.285C26.359 122.285 26.3591 122.285 26.3589 122.285C26.3588 122.285 26.3586 122.285 26.3583 122.285C26.3582 122.285 26.3579 122.285 26.3578 122.285C26.3575 122.285 26.3572 122.286 25.9219 121.385ZM22.0857 129.59C23.3066 131.344 25.1998 131.481 26.543 131.283C27.2259 131.183 27.832 130.991 28.2619 130.828C28.4789 130.746 28.6559 130.669 28.7813 130.611C28.8441 130.583 28.8943 130.558 28.9304 130.541C28.9484 130.532 28.963 130.525 28.9739 130.519C28.9793 130.516 28.9838 130.514 28.9874 130.512C28.9892 130.511 28.9907 130.51 28.9921 130.51C28.9927 130.509 28.9933 130.509 28.9939 130.509C28.9941 130.509 28.9945 130.508 28.9946 130.508C28.995 130.508 28.9953 130.508 28.5324 129.622C28.0694 128.735 28.0697 128.735 28.07 128.735C28.0701 128.735 28.0704 128.735 28.0705 128.735C28.0708 128.735 28.0711 128.734 28.0713 128.734C28.0717 128.734 28.0718 128.734 28.0718 128.734C28.0717 128.734 28.0707 128.735 28.0689 128.736C28.0652 128.737 28.0581 128.741 28.0477 128.746C28.027 128.756 27.9934 128.772 27.9482 128.793C27.8578 128.835 27.7224 128.893 27.5531 128.958C27.2107 129.087 26.7492 129.231 26.2516 129.305C25.2338 129.455 24.3141 129.29 23.7273 128.447L22.0857 129.59ZM28.5324 129.622C28.0063 128.771 28.0059 128.771 28.0055 128.772C28.0054 128.772 28.0049 128.772 28.0046 128.772C28.004 128.773 28.0033 128.773 28.0025 128.774C28.0009 128.775 27.9989 128.776 27.9966 128.777C27.9921 128.78 27.9862 128.784 27.9789 128.788C27.9645 128.798 27.9449 128.81 27.9206 128.826C27.872 128.858 27.8043 128.904 27.7212 128.962C27.5552 129.079 27.3261 129.248 27.0629 129.466C26.5409 129.898 25.8637 130.537 25.2828 131.349C24.7027 132.16 24.1901 133.183 24.0625 134.373C23.9326 135.584 24.2115 136.886 25.0859 138.208L26.7538 137.104C26.1215 136.149 25.9736 135.308 26.0511 134.586C26.1309 133.842 26.4597 133.141 26.9094 132.513C27.3583 131.886 27.8992 131.37 28.3379 131.007C28.5551 130.827 28.7419 130.689 28.8718 130.598C28.9367 130.552 28.9869 130.519 29.0192 130.497C29.0354 130.487 29.047 130.479 29.0537 130.475C29.057 130.473 29.0592 130.472 29.06 130.471C29.0604 130.471 29.0605 130.471 29.0602 130.471C29.0601 130.471 29.0599 130.471 29.0596 130.471C29.0595 130.471 29.0592 130.472 29.0591 130.472C29.0588 130.472 29.0585 130.472 28.5324 129.622ZM25.0859 138.208C26.0279 139.631 27.6412 140.266 28.842 140.561C29.4641 140.714 30.0313 140.79 30.4425 140.827C30.6491 140.846 30.8188 140.856 30.9395 140.861C30.9999 140.863 31.0482 140.865 31.0829 140.865C31.1002 140.866 31.1142 140.866 31.1246 140.866C31.1298 140.866 31.1341 140.866 31.1374 140.866C31.1391 140.866 31.1406 140.866 31.1418 140.866C31.1424 140.866 31.143 140.866 31.1435 140.866C31.1438 140.866 31.1441 140.866 31.1442 140.866C31.1445 140.866 31.1448 140.866 31.1448 139.866C31.1448 138.866 31.1451 138.866 31.1454 138.866C31.1454 138.866 31.1457 138.866 31.1458 138.866C31.1461 138.866 31.1463 138.866 31.1464 138.866C31.1468 138.866 31.1469 138.866 31.1467 138.866C31.1465 138.866 31.1454 138.866 31.1434 138.866C31.1395 138.866 31.1321 138.866 31.1215 138.866C31.1004 138.865 31.0664 138.864 31.0211 138.863C30.9303 138.859 30.7947 138.851 30.6257 138.836C30.2857 138.804 29.8209 138.742 29.3196 138.619C28.2735 138.361 27.2743 137.891 26.7538 137.104L25.0859 138.208ZM31.487 140.806L139.602 101.435L138.918 99.5557L30.8027 138.926L31.487 140.806ZM139.26 100.495C140.105 101.03 140.105 101.03 140.106 101.029C140.106 101.029 140.106 101.029 140.106 101.029C140.106 101.028 140.106 101.028 140.107 101.027C140.107 101.026 140.108 101.025 140.109 101.024C140.111 101.021 140.113 101.018 140.116 101.013C140.121 101.005 140.128 100.993 140.137 100.978C140.155 100.949 140.179 100.908 140.209 100.856C140.27 100.752 140.353 100.604 140.45 100.419C140.644 100.049 140.894 99.5241 141.125 98.9013C141.577 97.6821 142.001 95.9635 141.646 94.2638L139.688 94.6732C139.93 95.8311 139.651 97.1259 139.25 98.2057C139.055 98.7324 138.841 99.1789 138.678 99.4924C138.596 99.6485 138.527 99.7703 138.481 99.8508C138.457 99.8911 138.439 99.9209 138.428 99.9396C138.422 99.9489 138.418 99.9554 138.416 99.9589C138.415 99.9607 138.414 99.9618 138.414 99.9621C138.414 99.9622 138.414 99.9622 138.414 99.962C138.414 99.9619 138.414 99.9617 138.414 99.9615C138.415 99.9614 138.415 99.9612 138.415 99.9612C138.415 99.961 138.415 99.9608 139.26 100.495ZM141.646 94.2638C141.152 91.9023 139.06 90.8362 137.457 90.3551C136.623 90.1048 135.825 89.9807 135.241 89.9184C134.947 89.8871 134.703 89.8709 134.53 89.8625C134.443 89.8583 134.374 89.8561 134.325 89.8549C134.3 89.8543 134.28 89.8539 134.266 89.8537C134.259 89.8536 134.253 89.8536 134.249 89.8536C134.247 89.8535 134.245 89.8535 134.243 89.8535C134.242 89.8535 134.242 89.8535 134.241 89.8535C134.241 89.8535 134.241 89.8535 134.24 89.8535C134.24 89.8535 134.24 89.8535 134.236 90.8535C134.233 91.8535 134.232 91.8535 134.232 91.8535C134.232 91.8535 134.232 91.8535 134.232 91.8535C134.231 91.8535 134.231 91.8535 134.231 91.8535C134.231 91.8535 134.231 91.8535 134.232 91.8535C134.233 91.8535 134.235 91.8535 134.239 91.8536C134.246 91.8537 134.258 91.8539 134.276 91.8543C134.31 91.8551 134.363 91.8568 134.433 91.8602C134.574 91.867 134.779 91.8804 135.029 91.9071C135.533 91.9609 136.202 92.0665 136.882 92.2706C138.307 92.6982 139.43 93.4397 139.688 94.6732L141.646 94.2638ZM134.236 90.8535C134.685 91.7473 134.685 91.7471 134.685 91.747C134.685 91.7469 134.686 91.7468 134.686 91.7466C134.686 91.7464 134.687 91.7461 134.687 91.7458C134.689 91.7453 134.69 91.7446 134.692 91.7438C134.695 91.7422 134.699 91.7401 134.703 91.7377C134.713 91.7328 134.726 91.7263 134.741 91.718C134.772 91.7016 134.815 91.6785 134.868 91.6489C134.973 91.5899 135.12 91.5045 135.292 91.3942C135.635 91.1754 136.094 90.8504 136.548 90.4299C137.417 89.6242 138.472 88.2674 138.242 86.5056L136.259 86.7644C136.361 87.5423 135.909 88.2947 135.188 88.9633C134.846 89.28 134.49 89.5335 134.215 89.7088C134.08 89.7956 133.967 89.8612 133.891 89.9038C133.853 89.9251 133.824 89.9406 133.806 89.95C133.797 89.9547 133.791 89.9579 133.788 89.9595C133.786 89.9603 133.786 89.9607 133.786 89.9608C133.786 89.9608 133.786 89.9607 133.786 89.9605C133.786 89.9604 133.786 89.9603 133.787 89.9602C133.787 89.9601 133.787 89.96 133.787 89.9599C133.787 89.9598 133.788 89.9597 134.236 90.8535ZM138.242 86.5056C138.064 85.1415 137.518 84.1068 136.761 83.3509C136.018 82.6076 135.12 82.1811 134.296 81.9355C133.472 81.6899 132.683 81.6136 132.109 81.5962C131.82 81.5875 131.579 81.5935 131.406 81.6021C131.32 81.6064 131.251 81.6114 131.201 81.6155C131.176 81.6176 131.156 81.6194 131.141 81.6209C131.133 81.6216 131.127 81.6222 131.122 81.6227C131.12 81.623 131.117 81.6232 131.116 81.6234C131.115 81.6235 131.114 81.6236 131.113 81.6237C131.113 81.6237 131.112 81.6238 131.112 81.6238C131.112 81.6238 131.111 81.6239 131.222 82.6178C131.332 83.6116 131.332 83.6117 131.331 83.6117C131.331 83.6117 131.331 83.6118 131.331 83.6118C131.33 83.6118 131.33 83.6119 131.33 83.6119C131.329 83.612 131.329 83.612 131.329 83.612C131.33 83.6119 131.331 83.6118 131.334 83.6115C131.34 83.6109 131.35 83.61 131.365 83.6087C131.395 83.6063 131.443 83.6028 131.506 83.5996C131.633 83.5933 131.82 83.5884 132.049 83.5953C132.511 83.6093 133.117 83.671 133.725 83.8522C134.333 84.0335 134.904 84.3224 135.347 84.7655C135.778 85.196 136.136 85.8185 136.259 86.7644L138.242 86.5056ZM131.222 82.6178C131.626 83.5326 131.626 83.5324 131.626 83.5322C131.627 83.5321 131.627 83.5319 131.627 83.5318C131.628 83.5315 131.629 83.5311 131.63 83.5307C131.631 83.53 131.633 83.5291 131.636 83.5281C131.64 83.5261 131.646 83.5236 131.652 83.5205C131.666 83.5144 131.683 83.5062 131.705 83.496C131.748 83.4754 131.806 83.4464 131.878 83.4088C132.021 83.3338 132.219 83.2237 132.447 83.0775C132.901 82.7872 133.499 82.3422 134.049 81.7287C135.177 80.4711 136.095 78.4931 135.181 75.8614L133.292 76.5179C133.913 78.306 133.324 79.542 132.56 80.3935C132.165 80.8346 131.721 81.1679 131.37 81.3923C131.196 81.5034 131.05 81.5848 130.951 81.6368C130.901 81.6628 130.863 81.6813 130.84 81.6923C130.829 81.6978 130.821 81.7015 130.817 81.7032C130.815 81.7041 130.814 81.7045 130.814 81.7045C130.815 81.7044 130.815 81.7043 130.815 81.704C130.816 81.7039 130.816 81.7038 130.817 81.7036C130.817 81.7035 130.817 81.7033 130.817 81.7033C130.818 81.7031 130.818 81.7029 131.222 82.6178ZM135.181 75.8614C134.731 74.5661 134.005 73.6726 133.124 73.1069C132.256 72.5503 131.311 72.3572 130.48 72.3278C129.651 72.2984 128.894 72.4304 128.354 72.5637C128.082 72.6311 127.858 72.7006 127.698 72.7545C127.618 72.7815 127.555 72.8047 127.509 72.8221C127.485 72.8307 127.467 72.8379 127.453 72.8434C127.446 72.8461 127.44 72.8484 127.436 72.8503C127.433 72.8512 127.432 72.852 127.43 72.8527C127.429 72.853 127.428 72.8533 127.428 72.8536C127.427 72.8537 127.427 72.8539 127.427 72.854C127.426 72.8542 127.426 72.8543 127.806 73.7794C128.185 74.7045 128.185 74.7047 128.185 74.7048C128.184 74.7049 128.184 74.705 128.184 74.7051C128.184 74.7052 128.183 74.7054 128.183 74.7055C128.182 74.7057 128.182 74.7057 128.182 74.7057C128.182 74.7056 128.184 74.7051 128.186 74.7042C128.191 74.7023 128.2 74.6988 128.213 74.6938C128.24 74.6839 128.282 74.6682 128.339 74.6489C128.454 74.6102 128.624 74.5573 128.834 74.5053C129.26 74.4 129.823 74.3058 130.409 74.3265C130.995 74.3473 131.561 74.4805 132.043 74.7901C132.512 75.0907 132.974 75.6034 133.292 76.5179L135.181 75.8614ZM127.456 72.8424L22.3473 112.012L23.0457 113.886L128.155 74.7165L127.456 72.8424ZM26.2673 122.324L131.567 83.5562L130.876 81.6793L25.5764 120.447L26.2673 122.324ZM133.892 89.9146L28.188 128.683L28.8767 130.56L134.58 91.7923L133.892 89.9146ZM25.9219 121.385C25.5007 120.478 25.501 120.478 25.5013 120.478C25.5014 120.478 25.5017 120.478 25.5018 120.478C25.5021 120.478 25.5024 120.477 25.5025 120.477C25.5028 120.477 25.5028 120.477 25.5025 120.477C25.5019 120.478 25.5001 120.479 25.4971 120.48C25.4911 120.483 25.4805 120.487 25.4654 120.494C25.4353 120.507 25.3877 120.527 25.3246 120.552C25.1982 120.603 25.0113 120.673 24.7801 120.746C24.3126 120.894 23.6889 121.047 23.0306 121.09C22.3687 121.134 21.7262 121.063 21.179 120.814C20.6553 120.576 20.16 120.15 19.7987 119.362L17.9806 120.195C18.5398 121.415 19.3838 122.195 20.3512 122.635C21.2952 123.064 22.2957 123.143 23.1617 123.086C24.0313 123.029 24.8205 122.831 25.3838 122.652C25.668 122.562 25.9011 122.475 26.0658 122.41C26.1482 122.377 26.2139 122.349 26.2608 122.329C26.2842 122.319 26.3029 122.31 26.3167 122.304C26.3236 122.301 26.3293 122.299 26.3337 122.297C26.3359 122.296 26.3377 122.295 26.3393 122.294C26.3401 122.294 26.3408 122.293 26.3414 122.293C26.3417 122.293 26.3421 122.293 26.3423 122.293C26.3426 122.292 26.343 122.292 25.9219 121.385ZM19.7987 119.362C19.4028 118.498 19.4108 117.783 19.5997 117.178C19.7972 116.546 20.2158 115.965 20.7435 115.453C21.2681 114.944 21.8589 114.544 22.3287 114.267C22.5613 114.131 22.7585 114.028 22.895 113.96C22.9631 113.927 23.0157 113.902 23.0495 113.886C23.0664 113.879 23.0786 113.873 23.0857 113.87C23.0892 113.868 23.0915 113.867 23.0924 113.867C23.0929 113.867 23.093 113.867 23.0928 113.867C23.0926 113.867 23.0925 113.867 23.0922 113.867C23.092 113.867 23.0918 113.867 23.0917 113.867C23.0914 113.867 23.0911 113.868 22.6965 112.949C22.302 112.03 22.3016 112.03 22.3013 112.03C22.3011 112.03 22.3007 112.03 22.3004 112.03C22.2997 112.031 22.299 112.031 22.2982 112.031C22.2966 112.032 22.2946 112.033 22.2923 112.034C22.2877 112.036 22.2816 112.039 22.2743 112.042C22.2595 112.048 22.2394 112.058 22.2143 112.069C22.1642 112.092 22.0942 112.125 22.0078 112.168C21.835 112.253 21.595 112.379 21.3152 112.543C20.7604 112.869 20.0265 113.362 19.3507 114.018C18.678 114.671 18.0206 115.526 17.6907 116.582C17.3524 117.664 17.3818 118.888 17.9806 120.195L19.7987 119.362Z" fill="black"/>
<path d="M61.3874 28.7134C61.3874 36.4725 59.2889 43.4519 55.9487 48.4622C52.6038 53.4795 48.0927 56.4269 43.2451 56.4269C38.3975 56.4269 33.8864 53.4795 30.5415 48.4622C27.2013 43.4519 25.1028 36.4725 25.1028 28.7134C25.1028 20.9543 27.2013 13.975 30.5415 8.96467C33.8864 3.94734 38.3975 1 43.2451 1C48.0927 1 52.6038 3.94734 55.9487 8.96467C59.2889 13.975 61.3874 20.9543 61.3874 28.7134Z" fill="white" stroke="black" stroke-width="2"/>
<path d="M99.672 28.7134C99.672 36.4725 97.5736 43.4519 94.2333 48.4622C90.8885 53.4795 86.3774 56.4269 81.5297 56.4269C76.6821 56.4269 72.171 53.4795 68.8261 48.4622C65.4859 43.4519 63.3875 36.4725 63.3875 28.7134C63.3875 20.9543 65.4859 13.975 68.8261 8.96467C72.171 3.94734 76.6821 1 81.5297 1C86.3774 1 90.8885 3.94734 94.2333 8.96467C97.5736 13.975 99.672 20.9543 99.672 28.7134Z" fill="white" stroke="black" stroke-width="2"/>
<ellipse cx="88.4394" cy="41.5513" rx="8.25099" ry="11.5514" transform="rotate(11.8039 88.4394 41.5513)" fill="black"/>
<ellipse cx="50.4394" cy="41.5513" rx="8.25099" ry="11.5514" transform="rotate(11.8039 50.4394 41.5513)" fill="black"/>
<path d="M46.5454 69.3083C46.5454 80.7436 69.6508 79.7535 69.6508 69.3083" stroke="black" stroke-width="2"/>
</svg>
