<svg width="128" height="124" viewBox="0 0 128 124" fill="none" xmlns="http://www.w3.org/2000/svg">
<path fill-rule="evenodd" clip-rule="evenodd" d="M44.1367 122.614C34.9939 122.219 7.74388 119.272 1.02352 114.157C0.57768 106.917 6.56455 58.3729 10.916 50.9683C23.1193 30.2043 48.7353 25.5839 70.2692 21.5671C69.3509 16.1322 69.8069 10.6071 69.4482 5.13113C88.8295 10.1048 108.462 17.511 126.208 26.7534C117.976 43.8252 99.318 58.9888 84.658 70.616C83.1195 67.4071 79.954 58.8347 79.0302 55.42C70.5293 56.9113 61.2495 58.3206 54.0976 63.5424C43.7687 71.0833 44.4104 110.748 44.1367 122.614Z" fill="#FF9702" stroke="black" stroke-width="2" stroke-miterlimit="1.5" stroke-linecap="round" stroke-linejoin="round"/>
<path d="M45.5543 21.0949C46.5614 25.1856 46.3547 29.1175 45.2571 32.154C44.1566 35.1983 42.2143 37.2312 39.8012 37.8247C37.3881 38.4182 34.7238 37.5183 32.3355 35.3321C29.9534 33.1516 27.9447 29.7645 26.9375 25.6738C25.9304 21.5832 26.1371 17.6512 27.2347 14.6148C28.3352 11.5705 30.2775 9.5376 32.6906 8.94408C35.1037 8.35057 37.7681 9.25046 40.1563 11.4367C42.5385 13.6172 44.5471 17.0043 45.5543 21.0949Z" fill="white" stroke="black" stroke-width="2"/>
<path d="M66.1134 16.0382C67.1205 20.1289 66.9138 24.0608 65.8162 27.0973C64.7157 30.1416 62.7734 32.1745 60.3603 32.768C57.9472 33.3615 55.2828 32.4616 52.8946 30.2754C50.5125 28.0949 48.5038 24.7078 47.4966 20.6171C46.4895 16.5265 46.6962 12.5945 47.7938 9.55811C48.8943 6.51382 50.8366 4.4809 53.2497 3.88738C55.6628 3.29387 58.3272 4.19376 60.7154 6.37996C63.0975 8.56051 65.1062 11.9476 66.1134 16.0382Z" fill="white" stroke="black" stroke-width="2"/>
<ellipse rx="4.56284" ry="6.3851" transform="matrix(0.971059 -0.238838 0.239067 0.971003 41.5696 21.6882)" fill="black"/>
<ellipse rx="4.56284" ry="6.3851" transform="matrix(0.971059 -0.238838 0.239067 0.971003 62.3515 16.2669)" fill="black"/>
<path d="M46.6052 43.3737C48.5933 49.374 60.5511 44.8396 58.7352 39.3588" stroke="black" stroke-width="2"/>
</svg>
