<svg width="197" height="185" viewBox="0 0 197 185" fill="none" xmlns="http://www.w3.org/2000/svg">
<path d="M99.1774 1.04823C81.3462 -0.806709 60.9917 51.4647 60.9917 51.4647C60.9917 51.4647 5.47959 55.0058 1.27406 73.5536C-2.93147 92.1013 42.6559 117.563 42.6559 117.563C42.6559 117.563 29.0302 172.026 42.6559 181.637C56.2816 191.248 102.374 158.031 102.374 158.031C102.374 158.031 153.007 186.695 164.615 177.422C176.222 168.148 159.904 113.347 159.904 113.347C159.904 113.347 200.613 82.1532 195.567 65.1227C190.52 48.0922 135.344 51.4647 135.344 51.4647C135.344 51.4647 117.009 2.90316 99.1774 1.04823Z" fill="#A466FB" stroke="black" stroke-width="2"/>
</svg>
