<svg width="153" height="162" viewBox="0 0 153 162" fill="none" xmlns="http://www.w3.org/2000/svg">
<path fill-rule="evenodd" clip-rule="evenodd" d="M55.0034 9.65326C67.9523 2.68945 83.5213 0.421447 97.8654 3.08147C102.323 3.90815 105.264 8.18038 104.435 12.6238C103.606 17.0672 99.3196 19.9991 94.8621 19.1725C84.0965 17.176 72.3512 18.921 62.7997 24.0577C45.8078 33.1955 29.4252 48.9668 21.9034 66.0616C18.9563 72.759 17.5584 81.8422 18.9807 89.5462C19.1726 90.5855 19.409 91.5779 19.6909 92.5201C23.396 85.7136 28.0756 79.6856 31.5364 75.4203C40.918 63.8564 51.7736 53.5225 63.5046 44.5278C73.0288 37.2249 84.3576 29.4714 97.0285 25.2746C101.073 23.935 106.233 22.6392 111.845 23.6138C117.747 24.6385 122.943 27.9346 127.544 33.4376C130.291 36.7236 130.081 40.5159 129.623 42.6808C129.153 44.9027 128.143 46.9666 127.151 48.6608C125.122 52.128 121.968 56.0389 118.336 60.0172C112.03 66.9236 103.4 74.9789 94.0285 82.8488C101.718 77.4815 110.581 73.5986 120.384 72.5784C122.802 72.3264 126.979 72.0841 130.99 73.2135C133.076 73.801 135.549 74.8775 137.674 76.9168C139.921 79.0724 141.356 81.9071 141.784 85.1729C142.433 90.118 140.881 94.7138 139.28 98.0544C137.617 101.523 135.441 104.581 133.685 106.784C121.753 121.749 103.53 130.926 86.7911 135.903C83.3861 136.915 79.8842 137.839 76.3151 138.637C76.3643 139.049 76.4634 139.295 76.54 139.445C76.644 139.648 76.8296 139.911 77.2132 140.233C78.0868 140.965 79.6801 141.747 82.1595 142.379C94.9721 145.644 110.301 142.259 122.315 135.1C126.266 132.747 130.179 129.917 133.842 126.869C134.442 125.42 135.466 124.127 136.874 123.192C138.3 122.243 139.916 121.799 141.511 121.817C141.724 121.784 141.966 121.755 142.229 121.738C142.63 121.711 143.338 121.693 144.201 121.845C145.037 121.991 146.494 122.379 147.925 123.525C149.531 124.809 150.536 126.595 150.873 128.478C151.17 130.144 150.882 131.493 150.668 132.221C148.416 139.889 136.016 146.005 130.741 149.149C115.972 157.948 96.1555 162.84 78.0923 158.237C74.4886 157.318 70.1986 155.74 66.6403 152.755C63.3169 149.967 60.849 146.112 60.1002 141.233C55.4533 141.664 50.7665 141.811 46.0953 141.601C38.6097 141.265 25.7367 139.632 18.5777 129.588C14.7087 124.159 13.3786 118.39 13.5226 112.831C7.52038 107.396 4.20801 99.9622 2.83178 92.5081C0.751082 81.2388 2.75056 68.8402 6.86604 59.4875C16.1664 38.351 35.5365 20.122 55.0034 9.65326ZM31.9867 120.141C34.2394 123.262 39.5173 124.922 46.8342 125.251C51.8929 125.477 57.0729 125.2 62.2731 124.525C62.8539 122.851 63.5074 121.236 64.197 119.695C66.764 113.959 70.0951 108.681 72.9829 104.469C76.4442 99.4216 80.6582 94.3461 85.5366 89.7666C75.4251 97.7565 64.7865 105.294 55.3466 110.815C50.0637 113.905 44.9228 116.502 40.316 118.161C37.8552 119.048 34.9588 119.894 31.9867 120.141ZM82.4425 120.116C97.3235 115.638 111.85 107.863 120.831 96.5999C122.16 94.9326 123.529 92.9478 124.464 90.9974C124.898 90.0918 125.162 89.3536 125.316 88.7731C125.117 88.7573 124.899 88.7459 124.662 88.7399C123.816 88.7175 122.925 88.7699 122.09 88.8566C108.196 90.3029 95.37 100.826 86.5393 113.705C85.1524 115.728 83.7495 117.884 82.4425 120.116ZM32.5517 103.459C33.1436 103.303 33.8663 103.082 34.7345 102.769C38.017 101.586 42.1889 99.5345 47.0369 96.6992C56.6919 91.052 68.1077 82.8444 78.893 74.0924C89.6821 65.3376 99.555 56.2697 106.193 49.0009C109.057 45.8639 111.11 43.2868 112.375 41.3641C110.954 40.2402 109.843 39.8796 109.027 39.7381C107.486 39.4704 105.484 39.721 102.206 40.8067C92.253 44.1032 82.7167 50.4459 73.516 57.5005C62.7126 65.7839 52.8047 75.2343 44.304 85.7119C40.2193 90.7465 35.4731 97.0434 32.5517 103.459Z" fill="#87B1FA"/>
<path fill-rule="evenodd" clip-rule="evenodd" d="M6.8661 59.4874C16.1664 38.3509 35.5365 20.1219 55.0035 9.65321C67.9524 2.6894 83.5214 0.4214 97.8654 3.08142C102.323 3.9081 105.264 8.18033 104.435 12.6237C103.606 17.0672 99.3197 19.9991 94.8622 19.1724C84.0966 17.176 72.3513 18.921 62.7997 24.0576C45.8078 33.1955 29.4253 48.9667 21.9034 66.0615C18.9563 72.759 17.5584 81.8422 18.9807 89.5462C18.9881 89.5858 18.9954 89.6254 19.0029 89.6648C19.1908 90.6611 19.4198 91.6138 19.6909 92.5201C20.1517 91.6735 20.6276 90.839 21.1144 90.0184C24.5412 84.2414 28.5061 79.155 31.5364 75.4202C40.918 63.8563 51.7736 53.5224 63.5047 44.5277C73.0289 37.2248 84.3577 29.4713 97.0285 25.2746C101.073 23.935 106.233 22.6392 111.845 23.6137C117.747 24.6384 122.943 27.9346 127.544 33.4376C130.291 36.7236 130.081 40.5158 129.623 42.6808C129.153 44.9026 128.143 46.9665 127.151 48.6608C125.122 52.128 121.968 56.0389 118.336 60.0172C113.927 64.8461 108.382 70.2366 102.241 75.7328C99.5996 78.0973 96.8476 80.4814 94.0286 82.8487C96.9713 80.7947 100.086 78.9581 103.359 77.4161C108.639 74.9288 114.333 73.2082 120.384 72.5784C122.802 72.3263 126.979 72.0841 130.99 73.2134C133.076 73.801 135.549 74.8774 137.674 76.9168C139.921 79.0723 141.356 81.9071 141.784 85.1729C142.433 90.1179 140.881 94.7138 139.28 98.0543C137.617 101.523 135.441 104.581 133.685 106.783C121.753 121.749 103.53 130.926 86.7911 135.903C83.3862 136.915 79.8843 137.839 76.3151 138.637C76.3459 138.894 76.396 139.087 76.4481 139.231C76.4793 139.319 76.5113 139.389 76.5401 139.445C76.6441 139.648 76.8296 139.911 77.2133 140.233C77.2904 140.298 77.3732 140.363 77.4616 140.428C78.3751 141.102 79.899 141.803 82.1596 142.379C94.9722 145.644 110.301 142.259 122.315 135.1C126.266 132.747 130.179 129.917 133.842 126.869C134.442 125.42 135.466 124.127 136.874 123.191C138.3 122.243 139.916 121.799 141.511 121.817C141.724 121.784 141.966 121.755 142.229 121.738C142.63 121.711 143.338 121.693 144.201 121.844C145.037 121.991 146.494 122.379 147.925 123.525C149.531 124.809 150.536 126.595 150.873 128.478C151.17 130.144 150.882 131.493 150.668 132.221C148.706 138.901 139.042 144.404 133.096 147.789C132.218 148.29 131.42 148.744 130.741 149.149C115.972 157.948 96.1555 162.84 78.0923 158.237C74.4886 157.318 70.1986 155.74 66.6404 152.755C63.317 149.967 60.849 146.112 60.1003 141.233C55.4534 141.664 50.7665 141.811 46.0953 141.601C38.6097 141.265 25.7368 139.632 18.5778 129.588C14.7087 124.159 13.3786 118.39 13.5227 112.831C7.52044 107.396 4.20806 99.9622 2.83184 92.5081C0.751138 81.2388 2.75061 68.8401 6.8661 59.4874ZM11.5123 113.691C11.5225 119.346 13.0082 125.219 16.9491 130.749C24.7081 141.634 38.5041 143.262 46.0055 143.599C50.1745 143.786 54.3485 143.695 58.489 143.377C59.604 147.922 62.1236 151.576 65.3549 154.288C69.24 157.547 73.858 159.221 77.5982 160.175C96.2996 164.94 116.661 159.866 131.764 150.867C132.393 150.492 133.154 150.059 134.006 149.574C136.549 148.126 139.907 146.214 142.999 144.01C147.069 141.109 151.254 137.323 152.587 132.784C152.852 131.881 153.212 130.2 152.842 128.127C152.423 125.783 151.172 123.561 149.175 121.963M11.5123 113.691C5.52875 107.954 2.24786 100.361 0.865079 92.8712C-1.29638 81.1645 0.777033 68.3595 5.03549 58.6819C14.5535 37.0507 34.2887 18.5221 54.0562 7.89178C67.4183 0.705709 83.4518 -1.6256 98.2301 1.11495C103.769 2.14218 107.434 7.45502 106.401 12.9906C105.368 18.5246 100.035 22.1658 94.4975 21.1389C84.1664 19.223 72.8855 20.9046 63.747 25.8191C47.0562 34.795 31.0384 50.2665 23.734 66.867C21.2081 72.6074 19.8829 80.2184 20.626 86.984C23.8181 81.9137 27.2896 77.48 29.9834 74.1601C39.4725 62.4636 50.4437 52.0219 62.2878 42.9406C71.8521 35.6069 83.3987 27.6821 96.3997 23.376C100.539 22.0051 106.081 20.583 112.187 21.6432C118.655 22.7662 124.245 26.3745 129.078 32.1546C132.392 36.1181 132.096 40.6543 131.58 43.0944C131.046 45.618 129.917 47.8952 128.877 49.6712C126.742 53.3192 123.478 57.3517 119.813 61.3656C116.37 65.1365 112.254 69.2345 107.715 73.45C111.67 72.0337 115.83 71.0415 120.177 70.5892C122.663 70.3299 127.148 70.0538 131.532 71.2883C133.824 71.9339 136.626 73.139 139.059 75.4735C141.643 77.9531 143.281 81.2093 143.767 84.9128C144.489 90.4118 142.759 95.4241 141.083 98.919C139.331 102.573 137.057 105.762 135.249 108.03C122.965 123.437 104.31 132.78 87.3612 137.82C85.0809 138.498 82.7562 139.137 80.3958 139.726C81.0006 139.966 81.7462 140.21 82.6534 140.441C94.8295 143.544 109.613 140.34 121.292 133.382C125.012 131.165 128.715 128.505 132.206 125.627C132.973 124.015 134.174 122.584 135.767 121.526C137.49 120.381 139.44 119.826 141.369 119.816C141.591 119.786 141.836 119.759 142.1 119.742C142.601 119.709 143.478 119.687 144.547 119.875C145.585 120.056 147.395 120.539 149.175 121.963M40.3161 118.161C38.5219 118.808 36.4963 119.432 34.3786 119.819C33.5917 119.963 32.792 120.074 31.9868 120.141C32.4667 120.806 33.0838 121.404 33.8287 121.938C36.5806 123.909 41.076 124.992 46.8342 125.25C51.8929 125.477 57.0729 125.2 62.2732 124.525C62.8539 122.851 63.5074 121.236 64.1971 119.695C66.7641 113.959 70.0952 108.681 72.9829 104.469C74.3694 102.447 75.8765 100.421 77.4988 98.424C79.9266 95.4352 82.6123 92.5118 85.5366 89.7666C82.427 92.2238 79.2674 94.6382 76.1082 96.9643C68.9949 102.202 61.8834 106.992 55.3466 110.815C50.0637 113.905 44.9228 116.502 40.3161 118.161ZM56.3564 112.542C51.0203 115.663 45.7616 118.325 40.9939 120.043C39.723 120.501 38.3139 120.958 36.8184 121.334C37.2263 121.514 37.6693 121.686 38.1491 121.847C40.429 122.614 43.3778 123.093 46.9239 123.252C51.4608 123.456 56.1136 123.243 60.8072 122.691C61.2962 121.376 61.8237 120.102 62.3716 118.878C65.0096 112.983 68.4166 107.592 71.3334 103.338C71.5478 103.025 71.7652 102.713 71.9853 102.4C66.6208 106.178 61.3295 109.633 56.3564 112.542ZM123.229 88.7647C122.844 88.7862 122.462 88.818 122.09 88.8566C108.196 90.3029 95.3701 100.826 86.5394 113.705C85.6962 114.935 84.8472 116.213 84.0174 117.529C83.4822 118.377 82.955 119.24 82.4426 120.116C83.4065 119.826 84.3689 119.522 85.3284 119.204C99.1822 114.616 112.432 107.133 120.831 96.5998C122.16 94.9326 123.529 92.9478 124.464 90.9974C124.506 90.9095 124.547 90.8232 124.586 90.7385C124.594 90.7205 124.602 90.7026 124.611 90.6848L124.613 90.6798C124.96 89.9175 125.181 89.2842 125.317 88.7731C125.117 88.7573 124.899 88.7458 124.662 88.7398C124.192 88.7274 123.709 88.738 123.229 88.7647ZM122.299 90.8456L122.297 90.8459C109.234 92.2058 96.8608 102.189 88.1889 114.836C87.8171 115.378 87.4448 115.929 87.0742 116.488C99.8168 111.929 111.664 104.889 119.267 95.353C120.373 93.9653 121.475 92.3891 122.299 90.8456ZM78.8931 74.0923L77.6329 72.5393C88.3742 63.8233 98.1667 54.8241 104.716 47.6522C106.748 45.4267 108.34 43.5148 109.514 41.9473C109.176 41.81 108.901 41.746 108.685 41.7086C107.64 41.5271 106.023 41.6493 102.835 42.7053L102.206 40.8067C105.484 39.721 107.486 39.4704 109.027 39.738C109.487 39.8178 110.041 39.9673 110.691 40.2839C110.75 40.3123 110.809 40.342 110.868 40.3731C111.325 40.6107 111.827 40.9306 112.375 41.3641C111.11 43.2868 109.057 45.8638 106.193 49.0008C99.555 56.2696 89.6822 65.3376 78.8931 74.0923ZM102.206 40.8067L102.835 42.7053C93.2127 45.8921 83.8947 52.063 74.733 59.0876C64.0427 67.2843 54.2504 76.6268 45.8572 86.972L44.3041 85.7119C52.8048 75.2342 62.7127 65.7838 73.516 57.5005C82.7168 50.4459 92.253 44.1031 102.206 40.8067ZM36.6958 99.8282C39.3799 95.2161 42.7717 90.775 45.8572 86.972L44.3041 85.7119C40.745 90.0986 36.6836 95.4438 33.7648 100.991C33.3338 101.81 32.9277 102.634 32.5518 103.459C33.1436 103.303 33.8664 103.082 34.7346 102.769C34.882 102.716 35.0313 102.661 35.1824 102.604C38.3933 101.4 42.4067 99.4071 47.037 96.6991C56.692 91.0519 68.1078 82.8444 78.8931 74.0923L77.6329 72.5393C66.8965 81.2517 55.5664 89.3933 46.0273 94.9727C42.4872 97.0431 39.351 98.6673 36.6958 99.8282Z" fill="black"/>
</svg>
