<svg width="68" height="68" viewBox="0 0 68 68" fill="none" xmlns="http://www.w3.org/2000/svg">
<path d="M50.9598 24.231C49.787 24.231 48.6256 24 47.5421 23.5512C46.4585 23.1024 45.474 22.4446 44.6446 21.6152C43.8153 20.7859 43.1574 19.8014 42.7086 18.7178C42.2598 17.6342 42.0288 16.4729 42.0288 15.3H35.6481V40.2856C35.6469 41.4248 35.2872 42.5346 34.6199 43.4579C33.9527 44.3812 33.0118 45.0711 31.9306 45.4298C30.8494 45.7884 29.6828 45.7977 28.596 45.4563C27.5092 45.1149 26.5574 44.4401 25.8756 43.5276C25.1938 42.615 24.8164 41.511 24.7971 40.372C24.7777 39.233 25.1173 38.1169 25.7678 37.1817C26.4182 36.2465 27.3465 35.5397 28.421 35.1616C29.4956 34.7835 30.6619 34.7531 31.7547 35.0748V28.8724C29.4323 28.5592 27.0697 28.962 24.9823 30.027C22.895 31.0919 21.1821 32.7683 20.0726 34.8324C18.9631 36.8964 18.5096 39.2498 18.7728 41.5783C19.036 43.9069 20.0033 46.0997 21.5456 47.864C23.0879 49.6283 25.1317 50.88 27.4041 51.4522C29.6765 52.0243 32.0694 51.8896 34.2633 51.066C36.4571 50.2424 38.3475 48.7691 39.6819 46.8428C41.0164 44.9165 41.7314 42.629 41.7316 40.2856L41.9167 27.6561C44.5383 29.5807 47.7069 30.6163 50.9591 30.6114L50.9598 24.231Z" fill="white"/>
</svg>
