<svg width="282" height="188" viewBox="0 0 282 188" fill="none" xmlns="http://www.w3.org/2000/svg">
<path d="M6 1.24011H275.724C278.486 1.24011 280.724 3.47869 280.724 6.24011V181.76C280.724 184.521 278.486 186.76 275.724 186.76H6.00001C3.23858 186.76 1 184.521 1 181.76V6.24011C1 3.47869 3.23858 1.24011 6 1.24011Z" fill="#87B1FA" stroke="black" stroke-width="2"/>
<path d="M1 154.1H280.724V181.76C280.724 184.521 278.486 186.76 275.724 186.76H6.00001C3.23858 186.76 1 184.521 1 181.76V154.1Z" fill="white" stroke="black" stroke-width="2"/>
<rect width="236.4" height="2.68201" rx="1.34101" transform="matrix(1 0 0 -1 33.2598 172.544)" fill="#D7D7D9"/>
<path d="M33.2598 171.204C33.2598 172.051 33.9459 172.737 34.7923 172.737H137.475C138.322 172.737 139.008 172.051 139.008 171.204C139.008 170.358 138.322 169.672 137.475 169.672H34.7923C33.9459 169.672 33.2598 170.358 33.2598 171.204Z" fill="#FF9702"/>
<path d="M139.008 174.844C138.042 174.844 137.117 174.461 136.434 173.778C135.751 173.095 135.368 172.17 135.368 171.204C135.368 169.184 137.006 167.564 139.008 167.564C141.028 167.564 142.648 169.184 142.648 171.204C142.648 172.17 142.264 173.095 141.582 173.778C140.899 174.461 139.973 174.844 139.008 174.844Z" fill="#FF9702"/>
<path d="M12.8938 166.395C12.3131 166.025 11.5532 166.443 11.5532 167.131V174.806C11.5532 175.494 12.3131 175.911 12.8938 175.542L18.9242 171.704C19.4628 171.362 19.4628 170.575 18.9242 170.233L12.8938 166.395Z" fill="black"/>
<path d="M141.125 42.0294C133.894 41.2773 125.64 62.4732 125.64 62.4732C125.64 62.4732 103.13 63.9091 101.425 71.4302C99.7198 78.9512 118.205 89.2757 118.205 89.2757C118.205 89.2757 112.68 111.36 118.205 115.258C123.73 119.155 142.421 105.685 142.421 105.685C142.421 105.685 162.953 117.309 167.659 113.548C172.366 109.788 165.749 87.5664 165.749 87.5664C165.749 87.5664 182.257 74.9173 180.21 68.0115C178.164 61.1057 155.79 62.4732 155.79 62.4732C155.79 62.4732 148.355 42.7816 141.125 42.0294Z" fill="#F4A0C4" stroke="black" stroke-width="2"/>
</svg>
