<svg width="68" height="68" viewBox="0 0 68 68" fill="none" xmlns="http://www.w3.org/2000/svg">
<path d="M35.6703 45.9C22.8922 45.9 15.6037 36.966 15.3 22.1H21.7008C21.911 33.0113 26.6298 37.6331 30.3675 38.5861V22.1H36.3945V31.5104C40.0854 31.1054 43.9633 26.8171 45.2714 22.1H51.2984C50.8055 24.5464 49.8228 26.8628 48.412 28.9042C47.0011 30.9457 45.1924 32.6683 43.0989 33.9642C45.4357 35.1484 47.4997 36.8245 49.1547 38.8819C50.8097 40.9394 52.0181 43.3313 52.7 45.9H46.0657C45.4535 43.6689 44.2092 41.6717 42.4888 40.1588C40.7684 38.6458 38.6484 37.6843 36.3945 37.3949V45.9H35.6703V45.9Z" fill="white"/>
</svg>
