<svg width="208" height="155" viewBox="0 0 208 155" fill="none" xmlns="http://www.w3.org/2000/svg">
<path d="M37.2129 51.5032H47.9069V89.7939C47.9069 94.0259 46.9076 97.7482 44.9091 100.961C42.9298 104.173 40.1434 106.684 36.5499 108.492C32.9564 110.281 28.7576 111.175 23.9534 111.175C19.1301 111.175 14.9217 110.281 11.3282 108.492C7.73467 106.684 4.94826 104.173 2.96896 100.961C0.989653 97.7482 0 94.0259 0 89.7939V51.5032H10.694V88.8993C10.694 91.3616 11.2321 93.5546 12.3082 95.4783C13.4035 97.402 14.9409 98.9121 16.9202 100.009C18.8995 101.086 21.2439 101.624 23.9534 101.624C26.663 101.624 29.0074 101.086 30.9867 100.009C32.9852 98.9121 34.5225 97.402 35.5987 95.4783C36.6748 93.5546 37.2129 91.3616 37.2129 88.8993V51.5032Z" fill="white"/>
<path d="M108.043 51.5032V111.175H98.5305L70.7145 70.9226H70.2245V111.175H59.5305V51.5032H69.122L96.8875 92.362H97.4063V51.5032H108.043Z" fill="white"/>
<path d="M159.726 111.233V51.5032H170.42V79.2906H171.14L194.683 51.5032H208L184.4 78.6558L207.431 111.233H194.575L176.963 85.8984L170.42 93.6316V111.233H159.726Z" fill="white"/>
<path fill-rule="evenodd" clip-rule="evenodd" d="M119.023 111.175L128.891 83.2438H123.659L152.829 0.718262L141.415 51.5032H148.959L137.096 83.2438H142.683L115.415 154.343L126.195 111.175H119.023Z" fill="white"/>
</svg>
